<svg xmlns="http://www.w3.org/2000/svg" xmlns:xlink="http://www.w3.org/1999/xlink" width="1000" zoomAndPan="magnify" viewBox="0 0 750 749.999995" height="1000" preserveAspectRatio="xMidYMid meet" version="1.0"><defs><clipPath id="id1"><path d="M 6.289062 92 L 739 92 L 739 659 L 6.289062 659 Z M 6.289062 92 " clip-rule="nonzero"/></clipPath><clipPath id="id2"><path d="M 182.726562 571.652344 C 182.726562 574.867188 180.125 577.464844 176.917969 577.464844 L 161.320312 577.464844 L 172.347656 588.492188 C 174.617188 590.765625 174.617188 594.4375 172.347656 596.710938 C 171.214844 597.84375 169.726562 598.414062 168.238281 598.414062 C 166.75 598.414062 165.265625 597.84375 164.132812 596.710938 L 153.105469 585.675781 L 153.105469 601.277344 C 153.105469 604.492188 150.5 607.089844 147.292969 607.089844 C 144.085938 607.089844 141.484375 604.492188 141.484375 601.277344 L 141.484375 585.675781 L 130.457031 596.710938 C 129.324219 597.84375 127.835938 598.414062 126.351562 598.414062 C 124.863281 598.414062 123.375 597.84375 122.242188 596.710938 C 119.972656 594.4375 119.972656 590.765625 122.242188 588.492188 L 133.269531 577.464844 L 117.671875 577.464844 C 114.464844 577.464844 111.859375 574.867188 111.859375 571.652344 C 111.859375 568.4375 114.464844 565.839844 117.671875 565.839844 L 133.277344 565.839844 L 122.242188 554.804688 C 119.972656 552.535156 119.972656 548.859375 122.242188 546.589844 C 124.515625 544.316406 128.1875 544.316406 130.457031 546.589844 L 141.484375 557.625 L 141.484375 542.019531 C 141.484375 538.808594 144.085938 536.210938 147.292969 536.210938 C 150.5 536.210938 153.105469 538.808594 153.105469 542.019531 L 153.105469 557.625 L 164.132812 546.589844 C 166.402344 544.316406 170.074219 544.316406 172.347656 546.589844 C 174.617188 548.859375 174.617188 552.535156 172.347656 554.804688 L 161.3125 565.839844 L 176.917969 565.839844 C 180.125 565.839844 182.726562 568.4375 182.726562 571.652344 Z M 275.9375 565.839844 L 260.332031 565.839844 L 271.367188 554.804688 C 273.636719 552.535156 273.636719 548.859375 271.367188 546.589844 C 269.09375 544.316406 265.421875 544.316406 263.152344 546.589844 L 252.125 557.625 L 252.125 542.019531 C 252.125 538.808594 249.523438 536.210938 246.316406 536.210938 C 243.109375 536.210938 240.503906 538.808594 240.503906 542.019531 L 240.503906 557.625 L 229.476562 546.589844 C 227.207031 544.316406 223.535156 544.316406 221.261719 546.589844 C 218.992188 548.859375 218.992188 552.535156 221.261719 554.804688 L 232.296875 565.839844 L 216.691406 565.839844 C 213.484375 565.839844 210.882812 568.4375 210.882812 571.652344 C 210.882812 574.867188 213.484375 577.464844 216.691406 577.464844 L 232.289062 577.464844 L 221.261719 588.492188 C 218.992188 590.765625 218.992188 594.4375 221.261719 596.710938 C 222.394531 597.84375 223.882812 598.414062 225.371094 598.414062 C 226.859375 598.414062 228.34375 597.84375 229.476562 596.710938 L 240.503906 585.675781 L 240.503906 601.277344 C 240.503906 604.492188 243.109375 607.089844 246.316406 607.089844 C 249.523438 607.089844 252.125 604.492188 252.125 601.277344 L 252.125 585.675781 L 263.152344 596.710938 C 264.285156 597.84375 265.773438 598.414062 267.257812 598.414062 C 268.746094 598.414062 270.234375 597.84375 271.367188 596.710938 C 273.636719 594.4375 273.636719 590.765625 271.367188 588.492188 L 260.339844 577.464844 L 275.9375 577.464844 C 279.144531 577.464844 281.75 574.867188 281.75 571.652344 C 281.75 568.4375 279.144531 565.839844 275.9375 565.839844 Z M 374.957031 565.839844 L 359.355469 565.839844 L 370.386719 554.804688 C 372.660156 552.535156 372.660156 548.859375 370.386719 546.589844 C 368.113281 544.316406 364.441406 544.316406 362.171875 546.589844 L 351.144531 557.625 L 351.144531 542.019531 C 351.144531 538.808594 348.542969 536.210938 345.335938 536.210938 C 342.128906 536.210938 339.527344 538.808594 339.527344 542.019531 L 339.527344 557.625 L 328.5 546.589844 C 326.226562 544.316406 322.554688 544.316406 320.285156 546.589844 C 318.011719 548.859375 318.011719 552.535156 320.285156 554.804688 L 331.316406 565.839844 L 315.71875 565.839844 C 312.511719 565.839844 309.90625 568.4375 309.90625 571.652344 C 309.90625 574.867188 312.511719 577.464844 315.71875 577.464844 L 331.3125 577.464844 L 320.285156 588.492188 C 318.011719 590.765625 318.011719 594.4375 320.285156 596.710938 C 321.417969 597.84375 322.902344 598.414062 324.390625 598.414062 C 325.878906 598.414062 327.367188 597.84375 328.5 596.710938 L 339.527344 585.675781 L 339.527344 601.277344 C 339.527344 604.492188 342.128906 607.089844 345.335938 607.089844 C 348.542969 607.089844 351.144531 604.492188 351.144531 601.277344 L 351.144531 585.675781 L 362.171875 596.710938 C 363.304688 597.84375 364.792969 598.414062 366.277344 598.414062 C 367.765625 598.414062 369.253906 597.84375 370.386719 596.710938 C 372.65625 594.4375 372.65625 590.765625 370.386719 588.492188 L 359.359375 577.464844 L 374.957031 577.464844 C 378.164062 577.464844 380.769531 574.867188 380.769531 571.652344 C 380.769531 568.4375 378.171875 565.839844 374.957031 565.839844 Z M 426.378906 577.464844 L 473.195312 577.464844 C 476.402344 577.464844 479.003906 574.867188 479.003906 571.652344 C 479.003906 568.4375 476.402344 565.839844 473.195312 565.839844 L 426.378906 565.839844 C 423.171875 565.839844 420.570312 568.4375 420.570312 571.652344 C 420.570312 574.867188 423.167969 577.464844 426.378906 577.464844 Z M 510.882812 577.464844 L 557.695312 577.464844 C 560.902344 577.464844 563.507812 574.867188 563.507812 571.652344 C 563.507812 568.4375 560.902344 565.839844 557.695312 565.839844 L 510.882812 565.839844 C 507.675781 565.839844 505.074219 568.4375 505.074219 571.652344 C 505.074219 574.867188 507.675781 577.464844 510.882812 577.464844 Z M 595.390625 577.464844 L 642.203125 577.464844 C 645.410156 577.464844 648.015625 574.867188 648.015625 571.652344 C 648.015625 568.4375 645.410156 565.839844 642.203125 565.839844 L 595.390625 565.839844 C 592.183594 565.839844 589.582031 568.4375 589.582031 571.652344 C 589.582031 574.867188 592.183594 577.464844 595.390625 577.464844 Z M 6.289062 509.054688 L 6.289062 158.472656 C 6.289062 132.304688 27.566406 111.019531 53.730469 111.019531 L 274.085938 111.019531 C 300.246094 111.019531 321.527344 132.304688 321.527344 158.472656 L 321.394531 506.519531 L 373.847656 506.519531 C 362.039062 486.394531 353.707031 463.214844 349.058594 437.4375 C 348.207031 432.640625 349.257812 427.820312 352.027344 423.828125 C 354.800781 419.839844 358.953125 417.167969 363.734375 416.300781 C 374.019531 414.5 383.105469 421.261719 384.851562 430.980469 C 389.484375 456.710938 398.320312 479.039062 411.117188 497.339844 C 413.035156 500.09375 414.039062 503.273438 414.261719 506.515625 L 654.464844 506.515625 C 668.214844 506.515625 679.675781 516.398438 682.1875 529.433594 C 694.441406 533.195312 703.222656 544.628906 703.222656 557.796875 L 703.222656 628.609375 C 703.222656 644.996094 689.890625 658.332031 673.507812 658.332031 L 114.976562 658.332031 C 101.054688 658.332031 89.453125 648.929688 86.21875 635.847656 C 73.929688 632.78125 64.761719 621.734375 64.761719 608.5 L 64.761719 556.496094 L 53.730469 556.496094 C 46.914062 556.496094 40.449219 555.027344 34.585938 552.429688 C 34.511719 552.394531 34.441406 552.359375 34.367188 552.316406 C 17.835938 544.898438 6.289062 528.3125 6.289062 509.054688 Z M 360.5 435.378906 C 365.359375 462.359375 374.425781 486.273438 387.460938 506.503906 L 402.636719 506.425781 C 402.460938 505.566406 402.109375 504.734375 401.589844 503.992188 C 387.832031 484.304688 378.351562 460.429688 373.417969 433.042969 C 372.855469 429.90625 370.148438 427.625 366.980469 427.625 C 366.585938 427.625 366.1875 427.667969 365.78125 427.738281 C 364.078125 428.050781 362.574219 429.015625 361.566406 430.457031 C 360.566406 431.898438 360.191406 433.652344 360.5 435.378906 Z M 64.757812 544.878906 L 64.757812 534.785156 C 64.757812 519.195312 77.433594 506.519531 93.015625 506.519531 L 269.222656 506.519531 C 264.714844 458.386719 255.824219 420.96875 244.03125 400.761719 C 231.773438 379.777344 216.203125 362.28125 199.007812 350.175781 C 197.445312 349.078125 196.527344 347.28125 196.542969 345.375 C 196.5625 343.46875 197.511719 341.691406 199.085938 340.617188 C 219.601562 326.679688 231.847656 303.574219 231.847656 278.820312 C 231.847656 237.652344 198.363281 204.160156 157.207031 204.160156 C 116.050781 204.160156 82.5625 237.652344 82.5625 278.820312 C 82.5625 303.574219 94.808594 326.679688 115.324219 340.617188 C 116.898438 341.691406 117.851562 343.46875 117.867188 345.375 C 117.886719 347.28125 116.960938 349.078125 115.40625 350.175781 C 98.207031 362.28125 82.636719 379.769531 70.386719 400.761719 C 47.820312 439.398438 43.480469 523.800781 42.773438 543.160156 C 46.222656 544.269531 49.894531 544.886719 53.710938 544.886719 L 64.757812 544.886719 Z M 682.722656 542.28125 L 682.722656 608.507812 C 682.722656 624.097656 670.042969 636.773438 654.457031 636.773438 L 98.839844 636.773438 C 101.863281 642.671875 108.027344 646.710938 114.96875 646.710938 L 673.496094 646.710938 C 683.476562 646.710938 691.59375 638.589844 691.59375 628.609375 L 691.59375 557.804688 C 691.597656 551.285156 688.050781 545.472656 682.722656 542.28125 Z M 654.457031 518.140625 L 385.484375 518.140625 L 384.371094 518.148438 C 384.363281 518.148438 384.351562 518.148438 384.339844 518.148438 C 384.324219 518.148438 384.3125 518.140625 384.296875 518.140625 L 93.019531 518.140625 C 83.839844 518.140625 76.382812 525.609375 76.382812 534.785156 L 76.382812 608.511719 C 76.382812 617.6875 83.847656 625.15625 93.019531 625.15625 L 654.464844 625.15625 C 663.640625 625.15625 671.109375 617.6875 671.109375 608.511719 L 671.109375 534.785156 C 671.101562 525.609375 663.636719 518.140625 654.457031 518.140625 Z M 17.90625 509.054688 C 17.90625 520.363281 23.183594 530.445312 31.386719 537.011719 C 32.617188 509.613281 37.992188 433.210938 60.363281 394.898438 C 71.941406 375.0625 86.363281 358.101562 102.378906 345.410156 C 82.570312 329.085938 70.957031 304.730469 70.957031 278.8125 C 70.957031 231.238281 109.652344 192.535156 157.21875 192.535156 C 204.78125 192.535156 243.480469 231.242188 243.480469 278.8125 C 243.480469 304.738281 231.859375 329.085938 212.054688 345.410156 C 228.066406 358.101562 242.492188 375.0625 254.070312 394.898438 C 270.15625 422.441406 277.523438 469.746094 280.90625 506.515625 L 309.773438 506.515625 L 309.90625 158.46875 C 309.90625 138.714844 293.839844 122.636719 274.085938 122.636719 L 53.730469 122.636719 C 33.976562 122.640625 17.90625 138.714844 17.90625 158.472656 Z M 403.953125 279.921875 C 389.605469 314.761719 381.78125 351.6875 381.328125 386.710938 C 381.191406 396.613281 373.035156 404.667969 363.148438 404.667969 C 363.125 404.667969 363.015625 404.667969 362.984375 404.667969 C 358.074219 404.597656 353.507812 402.644531 350.121094 399.175781 C 346.734375 395.695312 344.90625 391.109375 344.957031 386.25 C 345.476562 346.660156 354.246094 305.101562 370.324219 266.070312 C 399.941406 194.183594 450.972656 137.113281 510.332031 109.492188 C 512.757812 108.363281 515.332031 107.792969 517.992188 107.792969 C 525.039062 107.792969 531.511719 111.921875 534.480469 118.3125 C 536.527344 122.707031 536.734375 127.644531 535.074219 132.21875 C 533.414062 136.792969 530.070312 140.425781 525.675781 142.46875 C 474.484375 166.289062 430.121094 216.390625 403.953125 279.921875 Z M 520.769531 131.933594 C 522.351562 131.203125 523.554688 129.882812 524.15625 128.234375 C 524.761719 126.582031 524.6875 124.796875 523.949219 123.210938 C 522.472656 120.027344 518.457031 118.527344 515.226562 120.03125 C 458.484375 146.433594 409.578125 201.273438 381.070312 270.496094 C 365.546875 308.1875 357.078125 348.261719 356.582031 386.394531 C 356.558594 388.152344 357.222656 389.808594 358.449219 391.0625 C 359.679688 392.328125 361.292969 393.015625 363.113281 393.050781 L 363.152344 393.050781 C 366.71875 393.050781 369.667969 390.136719 369.710938 386.566406 C 370.1875 350.085938 378.3125 311.679688 393.214844 275.5 C 420.472656 209.292969 466.96875 156.96875 520.769531 131.933594 Z M 680.101562 412.0625 C 683.140625 412.0625 686.167969 412.84375 688.851562 414.3125 C 693.113281 416.65625 696.207031 420.519531 697.558594 425.191406 C 698.914062 429.871094 698.359375 434.78125 696.015625 439.039062 C 684.859375 459.308594 671.789062 478.144531 657.164062 494.996094 C 653.714844 498.984375 648.707031 501.265625 643.429688 501.265625 C 639.0625 501.265625 634.832031 499.691406 631.527344 496.828125 C 623.949219 490.242188 623.132812 478.730469 629.695312 471.160156 C 642.640625 456.234375 654.238281 439.523438 664.164062 421.480469 C 667.34375 415.679688 673.453125 412.0625 680.101562 412.0625 Z M 674.355469 427.074219 C 664.027344 445.839844 651.960938 463.230469 638.480469 478.769531 C 636.109375 481.507812 636.414062 485.667969 639.144531 488.046875 C 641.761719 490.3125 646.113281 490.015625 648.390625 487.378906 C 662.480469 471.136719 675.082031 452.988281 685.847656 433.425781 C 686.707031 431.863281 686.898438 430.136719 686.40625 428.429688 C 685.917969 426.742188 684.800781 425.347656 683.269531 424.5 C 682.296875 423.972656 681.207031 423.6875 680.105469 423.6875 C 677.703125 423.6875 675.496094 424.984375 674.355469 427.074219 Z M 733.023438 229.726562 C 743.570312 280.742188 738.203125 339.265625 717.910156 394.519531 C 715.296875 401.652344 708.441406 406.4375 700.847656 406.4375 C 698.722656 406.4375 696.613281 406.066406 694.585938 405.328125 C 690.019531 403.65625 686.386719 400.300781 684.347656 395.886719 C 682.308594 391.476562 682.113281 386.535156 683.785156 381.980469 C 701.765625 333.003906 706.605469 281.554688 697.410156 237.113281 C 695.386719 227.296875 701.726562 217.65625 711.53125 215.617188 C 712.820312 215.355469 714.023438 215.242188 715.203125 215.242188 C 723.785156 215.242188 731.277344 221.335938 733.023438 229.726562 Z M 721.644531 232.089844 C 721.019531 229.0625 718.304688 226.867188 715.203125 226.867188 C 714.773438 226.867188 714.332031 226.90625 713.867188 227 C 710.347656 227.730469 708.058594 231.214844 708.789062 234.757812 C 718.417969 281.292969 713.410156 335 694.691406 385.984375 C 694.085938 387.628906 694.160156 389.414062 694.898438 391.003906 C 695.628906 392.597656 696.945312 393.804688 698.578125 394.410156 C 701.917969 395.625 705.796875 393.8125 707.007812 390.511719 C 726.5625 337.269531 731.761719 281.003906 721.644531 232.089844 Z M 715.3125 177.679688 C 717.488281 182.03125 717.828125 186.964844 716.277344 191.574219 C 714.746094 196.171875 711.507812 199.902344 707.164062 202.074219 C 704.636719 203.332031 701.835938 203.988281 699.046875 203.988281 L 699.039062 203.988281 C 692.109375 203.988281 685.875 200.128906 682.78125 193.921875 C 669.136719 166.5625 648.84375 146.707031 624.097656 136.507812 C 608.585938 130.109375 591.828125 127.59375 574.035156 129.085938 L 572.730469 129.144531 C 572.730469 129.144531 572.726562 129.144531 572.726562 129.144531 C 562.972656 129.144531 555.191406 121.984375 554.390625 112.484375 C 553.984375 107.648438 555.484375 102.9375 558.621094 99.222656 C 561.757812 95.507812 566.148438 93.242188 570.988281 92.835938 C 594.699219 90.867188 617.101562 94.285156 637.945312 102.871094 C 670.933594 116.464844 697.6875 142.335938 715.3125 177.679688 Z M 704.914062 182.863281 C 688.558594 150.070312 663.867188 126.121094 633.507812 113.613281 C 614.371094 105.730469 593.785156 102.585938 571.949219 104.414062 C 570.207031 104.558594 568.613281 105.375 567.480469 106.71875 C 566.351562 108.054688 565.808594 109.753906 565.957031 111.503906 C 566.25 114.929688 569.054688 117.523438 572.488281 117.523438 L 573.300781 117.488281 C 576.6875 117.195312 580.332031 117.039062 583.875 117.039062 C 599.457031 117.039062 614.476562 119.976562 628.511719 125.761719 C 655.890625 137.042969 678.253906 158.824219 693.160156 188.734375 C 694.730469 191.878906 698.796875 193.25 701.96875 191.671875 C 703.527344 190.894531 704.699219 189.546875 705.25 187.882812 C 705.820312 186.210938 705.699219 184.433594 704.914062 182.863281 Z M 402.78125 373.042969 C 403.332031 349.640625 407.117188 325.777344 414.015625 302.140625 C 416.160156 294.816406 422.980469 289.703125 430.609375 289.703125 C 432.265625 289.703125 433.898438 289.941406 435.472656 290.40625 C 439.875 291.695312 443.535156 294.636719 445.753906 298.6875 C 447.976562 302.730469 448.480469 307.402344 447.191406 311.832031 C 441.132812 332.589844 437.808594 353.464844 437.320312 373.867188 C 437.105469 383.171875 429.359375 390.738281 420.054688 390.738281 C 420.007812 390.738281 419.816406 390.738281 419.773438 390.738281 C 410.164062 390.5 402.550781 382.566406 402.78125 373.042969 Z M 414.394531 373.320312 C 414.320312 376.417969 416.824219 379.003906 419.988281 379.113281 L 420.046875 379.113281 C 423.09375 379.113281 425.625 376.640625 425.699219 373.59375 C 426.210938 352.175781 429.6875 330.300781 436.03125 308.570312 C 436.460938 307.101562 436.296875 305.613281 435.558594 304.273438 C 434.832031 302.945312 433.636719 301.980469 432.191406 301.5625 C 429.234375 300.679688 426.019531 302.492188 425.171875 305.410156 C 418.542969 328.074219 414.917969 350.925781 414.394531 373.320312 Z M 663.242188 223.582031 C 686.148438 266.386719 687.890625 325.4375 668.152344 389.835938 C 656.28125 428.566406 612.214844 473.269531 576.460938 494.113281 C 573.75 495.683594 570.6875 496.507812 567.597656 496.507812 C 561.355469 496.507812 555.523438 493.160156 552.375 487.773438 C 547.484375 479.351562 550.332031 468.539062 558.71875 463.65625 C 587.417969 446.925781 625.875 407.515625 634.367188 379.804688 C 651.285156 324.59375 650.390625 275.097656 631.847656 240.453125 C 620.296875 218.871094 601.949219 203.800781 578.78125 196.875 C 573.570312 195.316406 568.089844 194.53125 562.488281 194.53125 C 527.621094 194.53125 489.324219 224 462.539062 271.445312 C 459.4375 276.972656 453.558594 280.40625 447.203125 280.40625 C 444.175781 280.40625 441.171875 279.613281 438.527344 278.117188 C 434.4375 275.808594 431.488281 272.035156 430.226562 267.5 C 428.964844 262.964844 429.546875 258.207031 431.859375 254.109375 C 464.863281 195.632812 514.976562 159.300781 562.636719 159.300781 C 571.609375 159.300781 580.441406 160.582031 588.871094 163.105469 C 621.585938 172.890625 647.300781 193.800781 663.242188 223.582031 Z M 652.992188 229.070312 C 638.550781 202.074219 615.222656 183.121094 585.542969 174.246094 C 578.1875 172.042969 570.484375 170.925781 562.636719 170.925781 C 519.160156 170.925781 472.925781 204.992188 441.972656 259.828125 C 441.183594 261.222656 440.992188 262.84375 441.414062 264.390625 C 441.847656 265.933594 442.851562 267.21875 444.234375 268.003906 C 447.050781 269.597656 450.851562 268.515625 452.414062 265.742188 C 481.253906 214.652344 523.429688 182.917969 562.484375 182.917969 C 569.210938 182.917969 575.804688 183.871094 582.097656 185.746094 C 608.300781 193.578125 629.039062 210.601562 642.082031 234.972656 C 662.097656 272.375 663.300781 325.023438 645.464844 383.21875 C 635.9375 414.308594 595.175781 455.859375 564.558594 473.703125 C 561.699219 475.367188 560.734375 479.054688 562.402344 481.921875 C 563.996094 484.652344 567.8125 485.691406 570.617188 484.066406 C 603.6875 464.785156 646.144531 421.964844 657.03125 386.429688 C 675.867188 325.011719 674.429688 269.125 652.992188 229.070312 Z M 405.523438 422.714844 C 404.441406 417.984375 405.273438 413.105469 407.871094 408.996094 C 410.457031 404.882812 414.492188 402.027344 419.222656 400.949219 C 420.507812 400.652344 421.882812 400.496094 423.277344 400.496094 C 431.671875 400.496094 439.121094 406.445312 440.980469 414.65625 C 448.839844 449.191406 465.910156 462.246094 498.363281 458.125 C 499.261719 458.023438 499.9375 457.992188 500.597656 457.992188 C 509.761719 457.992188 517.539062 464.8125 518.695312 473.859375 C 519.316406 478.671875 518.023438 483.445312 515.054688 487.296875 C 512.074219 491.144531 507.785156 493.597656 502.976562 494.210938 C 497.554688 494.898438 492.304688 495.246094 487.359375 495.246094 C 444.617188 495.242188 416.316406 470.164062 405.523438 422.714844 Z M 416.851562 420.128906 C 426.4375 462.257812 450.160156 483.617188 487.359375 483.617188 C 491.820312 483.617188 496.578125 483.296875 501.511719 482.675781 C 503.238281 482.457031 504.789062 481.574219 505.867188 480.175781 C 506.9375 478.792969 507.402344 477.074219 507.179688 475.335938 C 506.761719 472.066406 503.933594 469.605469 500.605469 469.605469 C 500.335938 469.605469 500.066406 469.625 499.738281 469.664062 C 461.96875 474.476562 438.808594 457.449219 429.65625 417.230469 C 428.996094 414.3125 426.257812 412.117188 423.285156 412.117188 C 422.789062 412.117188 422.277344 412.175781 421.835938 412.273438 C 420.09375 412.667969 418.640625 413.703125 417.707031 415.191406 C 416.757812 416.671875 416.464844 418.425781 416.851562 420.128906 Z M 576.050781 384.425781 C 575.335938 379.679688 576.503906 374.9375 579.34375 371.078125 C 586.273438 361.652344 591.722656 350.859375 595.53125 339.003906 C 602.214844 318.195312 602.917969 296.972656 597.515625 279.230469 C 592.585938 263.03125 583.144531 251.941406 570.925781 248 C 567.707031 246.96875 564.320312 246.4375 560.851562 246.4375 C 539.75 246.4375 517.40625 264.527344 503.941406 292.535156 C 500.953125 298.710938 494.605469 302.703125 487.753906 302.703125 C 485.039062 302.703125 482.425781 302.105469 479.980469 300.925781 C 475.652344 298.839844 472.40625 295.195312 470.824219 290.65625 C 469.246094 286.136719 469.511719 281.257812 471.589844 276.929688 C 491 236.582031 526.105469 210.511719 561.015625 210.511719 C 568.167969 210.511719 575.195312 211.613281 581.921875 213.78125 C 627.664062 228.527344 649.09375 289.632812 629.707031 350 C 624.707031 365.574219 617.492188 379.828125 608.253906 392.386719 C 604.882812 396.964844 599.472656 399.703125 593.792969 399.703125 C 589.929688 399.703125 586.246094 398.488281 583.136719 396.195312 C 579.285156 393.347656 576.765625 389.167969 576.050781 384.425781 Z M 587.535156 382.6875 C 587.785156 384.363281 588.679688 385.839844 590.039062 386.84375 C 592.746094 388.847656 596.894531 388.203125 598.894531 385.5 C 607.382812 373.960938 614.027344 360.820312 618.640625 346.449219 C 636.070312 292.179688 618 237.621094 578.355469 224.84375 C 572.789062 223.046875 566.953125 222.140625 561.015625 222.140625 C 530.542969 222.140625 499.546875 245.628906 482.0625 281.972656 C 481.328125 283.503906 481.230469 285.230469 481.792969 286.820312 C 482.363281 288.453125 483.476562 289.710938 485.03125 290.453125 C 488.074219 291.917969 492 290.535156 493.476562 287.476562 C 508.859375 255.488281 535.3125 234.808594 560.851562 234.808594 C 565.535156 234.808594 570.125 235.523438 574.492188 236.929688 C 590.433594 242.070312 602.558594 255.886719 608.628906 275.832031 C 614.71875 295.8125 613.992188 319.503906 606.589844 342.542969 C 602.398438 355.597656 596.378906 367.507812 588.703125 377.945312 C 587.699219 379.324219 587.285156 381.007812 587.535156 382.6875 Z M 519.941406 447.105469 C 515.011719 447.105469 509.738281 446.761719 504.109375 446 C 464.800781 440.613281 450.542969 404.191406 448.492188 385.679688 C 447.957031 380.859375 449.339844 376.109375 452.375 372.316406 C 455.40625 368.519531 459.738281 366.132812 464.5625 365.597656 C 466.074219 365.445312 467.566406 365.457031 469.019531 365.65625 C 477.300781 366.789062 483.722656 373.386719 484.632812 381.6875 C 484.75 382.664062 487.921875 407.074219 509.039062 409.960938 C 535.097656 413.5625 546.601562 404.121094 546.714844 404.027344 C 550.691406 400.535156 556 398.917969 561.242188 399.664062 C 565.476562 400.246094 569.386719 402.308594 572.246094 405.46875 C 578.902344 412.847656 578.378906 424.308594 571.082031 431.019531 C 570.273438 431.765625 553.160156 447.105469 519.941406 447.105469 Z M 563.222656 422.464844 C 565.847656 420.050781 566.027344 415.917969 563.628906 413.253906 C 562.605469 412.121094 561.195312 411.382812 559.660156 411.167969 C 557.75 410.925781 555.828125 411.496094 554.363281 412.773438 C 552.851562 414.105469 538.613281 425.722656 507.464844 421.480469 C 483.589844 418.207031 474.628906 395.757812 473.097656 383.007812 C 472.757812 379.957031 470.441406 377.574219 467.449219 377.167969 C 466.925781 377.097656 466.386719 377.085938 465.835938 377.152344 C 464.109375 377.34375 462.550781 378.203125 461.453125 379.574219 C 460.355469 380.945312 459.855469 382.660156 460.046875 384.398438 C 461.75 399.792969 473.480469 430.066406 505.6875 434.476562 C 543.960938 439.738281 562.457031 423.175781 563.222656 422.464844 Z M 549.335938 282.78125 C 548.425781 273.117188 555.53125 264.511719 565.179688 263.585938 L 565.96875 263.535156 C 575.621094 263.246094 583.472656 270.164062 584.371094 279.421875 C 588.855469 326.359375 571.644531 365.027344 533.210938 394.363281 C 530.28125 396.582031 526.824219 397.816406 523.199219 397.949219 C 522.976562 397.960938 522.757812 397.960938 522.542969 397.960938 C 517.074219 397.960938 511.886719 395.410156 508.554688 391.050781 C 502.667969 383.34375 504.148438 372.28125 511.851562 366.382812 C 540.378906 344.621094 552.636719 317.273438 549.335938 282.78125 Z M 518.90625 375.617188 C 516.292969 377.617188 515.785156 381.371094 517.785156 383.984375 C 518.96875 385.53125 520.863281 386.339844 522.757812 386.332031 C 523.988281 386.285156 525.175781 385.863281 526.167969 385.101562 C 561.175781 358.378906 576.867188 323.191406 572.789062 280.527344 C 572.496094 277.464844 569.875 275.128906 566.765625 275.128906 C 566.691406 275.128906 566.613281 275.128906 566.535156 275.132812 L 566.082031 275.164062 C 562.996094 275.464844 560.585938 278.394531 560.890625 281.679688 C 564.621094 320.492188 550.882812 351.226562 518.90625 375.617188 Z M 465.792969 320.003906 C 481.242188 319.246094 495.265625 313.824219 507.496094 303.894531 C 510.730469 301.265625 514.796875 299.820312 518.957031 299.820312 C 524.472656 299.820312 529.617188 302.277344 533.085938 306.566406 C 536.136719 310.308594 537.550781 315.046875 537.042969 319.882812 C 536.550781 324.710938 534.195312 329.0625 530.421875 332.125 C 512.0625 347.046875 490.921875 355.195312 467.578125 356.335938 L 466.820312 356.351562 C 466.773438 356.351562 466.730469 356.351562 466.6875 356.351562 C 456.984375 356.351562 449.007812 348.757812 448.53125 339.058594 C 448.039062 329.046875 455.789062 320.496094 465.792969 320.003906 Z M 466.363281 331.613281 C 462.75 331.789062 459.953125 334.878906 460.128906 338.496094 C 460.296875 341.96875 463.148438 344.699219 466.625 344.734375 L 467.152344 344.722656 C 487.824219 343.710938 506.695312 336.4375 523.089844 323.105469 C 524.453125 322.003906 525.300781 320.433594 525.480469 318.683594 C 525.664062 316.933594 525.15625 315.230469 524.058594 313.890625 C 522.796875 312.328125 520.9375 311.441406 518.957031 311.441406 C 517.460938 311.441406 515.988281 311.964844 514.820312 312.914062 C 500.632812 324.441406 484.332031 330.734375 466.363281 331.613281 Z M 466.363281 331.613281 " clip-rule="nonzero"/></clipPath><linearGradient x1="63" gradientTransform="matrix(5.809692, 0, 0, 5.811225, 6.287432, 92.290059)" y1="-0.245" x2="63" gradientUnits="userSpaceOnUse" y2="97.404998" id="id3"><stop stop-opacity="1" stop-color="rgb(93.699646%, 79.598999%, 34.498596%)" offset="0"/><stop stop-opacity="1" stop-color="rgb(93.663025%, 79.478455%, 34.614563%)" offset="0.0078125"/><stop stop-opacity="1" stop-color="rgb(93.572998%, 79.179382%, 34.899902%)" offset="0.015625"/><stop stop-opacity="1" stop-color="rgb(93.464661%, 78.822327%, 35.241699%)" offset="0.0234375"/><stop stop-opacity="1" stop-color="rgb(93.357849%, 78.466797%, 35.58197%)" offset="0.03125"/><stop stop-opacity="1" stop-color="rgb(93.251038%, 78.109741%, 35.922241%)" offset="0.0390625"/><stop stop-opacity="1" stop-color="rgb(93.1427%, 77.752686%, 36.262512%)" offset="0.046875"/><stop stop-opacity="1" stop-color="rgb(93.035889%, 77.397156%, 36.604309%)" offset="0.0546875"/><stop stop-opacity="1" stop-color="rgb(92.929077%, 77.0401%, 36.94458%)" offset="0.0625"/><stop stop-opacity="1" stop-color="rgb(92.82074%, 76.68457%, 37.284851%)" offset="0.0703125"/><stop stop-opacity="1" stop-color="rgb(92.713928%, 76.327515%, 37.625122%)" offset="0.078125"/><stop stop-opacity="1" stop-color="rgb(92.607117%, 75.971985%, 37.966919%)" offset="0.0859375"/><stop stop-opacity="1" stop-color="rgb(92.498779%, 75.614929%, 38.30719%)" offset="0.09375"/><stop stop-opacity="1" stop-color="rgb(92.391968%, 75.259399%, 38.647461%)" offset="0.101562"/><stop stop-opacity="1" stop-color="rgb(92.285156%, 74.902344%, 38.989258%)" offset="0.109375"/><stop stop-opacity="1" stop-color="rgb(92.178345%, 74.546814%, 39.329529%)" offset="0.117188"/><stop stop-opacity="1" stop-color="rgb(92.070007%, 74.189758%, 39.6698%)" offset="0.125"/><stop stop-opacity="1" stop-color="rgb(91.963196%, 73.832703%, 40.010071%)" offset="0.132812"/><stop stop-opacity="1" stop-color="rgb(91.856384%, 73.477173%, 40.351868%)" offset="0.140625"/><stop stop-opacity="1" stop-color="rgb(91.748047%, 73.120117%, 40.692139%)" offset="0.148438"/><stop stop-opacity="1" stop-color="rgb(91.641235%, 72.764587%, 41.03241%)" offset="0.15625"/><stop stop-opacity="1" stop-color="rgb(91.534424%, 72.407532%, 41.374207%)" offset="0.164062"/><stop stop-opacity="1" stop-color="rgb(91.426086%, 72.052002%, 41.714478%)" offset="0.171875"/><stop stop-opacity="1" stop-color="rgb(91.319275%, 71.694946%, 42.054749%)" offset="0.179687"/><stop stop-opacity="1" stop-color="rgb(91.212463%, 71.339417%, 42.39502%)" offset="0.1875"/><stop stop-opacity="1" stop-color="rgb(91.104126%, 70.982361%, 42.736816%)" offset="0.195312"/><stop stop-opacity="1" stop-color="rgb(90.997314%, 70.626831%, 43.077087%)" offset="0.203125"/><stop stop-opacity="1" stop-color="rgb(90.890503%, 70.269775%, 43.417358%)" offset="0.210938"/><stop stop-opacity="1" stop-color="rgb(90.782166%, 69.91272%, 43.757629%)" offset="0.21875"/><stop stop-opacity="1" stop-color="rgb(90.675354%, 69.55719%, 44.099426%)" offset="0.226562"/><stop stop-opacity="1" stop-color="rgb(90.568542%, 69.200134%, 44.439697%)" offset="0.234375"/><stop stop-opacity="1" stop-color="rgb(90.460205%, 68.844604%, 44.779968%)" offset="0.242188"/><stop stop-opacity="1" stop-color="rgb(90.353394%, 68.487549%, 45.121765%)" offset="0.25"/><stop stop-opacity="1" stop-color="rgb(90.246582%, 68.132019%, 45.462036%)" offset="0.257813"/><stop stop-opacity="1" stop-color="rgb(90.138245%, 67.774963%, 45.802307%)" offset="0.265625"/><stop stop-opacity="1" stop-color="rgb(90.031433%, 67.419434%, 46.142578%)" offset="0.273438"/><stop stop-opacity="1" stop-color="rgb(89.924622%, 67.062378%, 46.484375%)" offset="0.28125"/><stop stop-opacity="1" stop-color="rgb(89.816284%, 66.706848%, 46.824646%)" offset="0.289062"/><stop stop-opacity="1" stop-color="rgb(89.709473%, 66.349792%, 47.164917%)" offset="0.296875"/><stop stop-opacity="1" stop-color="rgb(89.602661%, 65.994263%, 47.506714%)" offset="0.304688"/><stop stop-opacity="1" stop-color="rgb(89.49585%, 65.637207%, 47.846985%)" offset="0.3125"/><stop stop-opacity="1" stop-color="rgb(89.387512%, 65.280151%, 48.187256%)" offset="0.320312"/><stop stop-opacity="1" stop-color="rgb(89.280701%, 64.924622%, 48.527527%)" offset="0.328125"/><stop stop-opacity="1" stop-color="rgb(89.173889%, 64.567566%, 48.869324%)" offset="0.335938"/><stop stop-opacity="1" stop-color="rgb(89.065552%, 64.212036%, 49.209595%)" offset="0.34375"/><stop stop-opacity="1" stop-color="rgb(88.95874%, 63.85498%, 49.549866%)" offset="0.351563"/><stop stop-opacity="1" stop-color="rgb(88.851929%, 63.499451%, 49.890137%)" offset="0.359375"/><stop stop-opacity="1" stop-color="rgb(88.743591%, 63.142395%, 50.231934%)" offset="0.367188"/><stop stop-opacity="1" stop-color="rgb(88.63678%, 62.786865%, 50.572205%)" offset="0.375"/><stop stop-opacity="1" stop-color="rgb(88.529968%, 62.42981%, 50.912476%)" offset="0.382813"/><stop stop-opacity="1" stop-color="rgb(88.421631%, 62.07428%, 51.254272%)" offset="0.390625"/><stop stop-opacity="1" stop-color="rgb(88.314819%, 61.717224%, 51.594543%)" offset="0.398438"/><stop stop-opacity="1" stop-color="rgb(88.208008%, 61.360168%, 51.934814%)" offset="0.40625"/><stop stop-opacity="1" stop-color="rgb(88.09967%, 61.004639%, 52.275085%)" offset="0.414063"/><stop stop-opacity="1" stop-color="rgb(87.992859%, 60.647583%, 52.616882%)" offset="0.421875"/><stop stop-opacity="1" stop-color="rgb(87.886047%, 60.292053%, 52.957153%)" offset="0.429688"/><stop stop-opacity="1" stop-color="rgb(87.77771%, 59.934998%, 53.297424%)" offset="0.4375"/><stop stop-opacity="1" stop-color="rgb(87.670898%, 59.579468%, 53.639221%)" offset="0.445313"/><stop stop-opacity="1" stop-color="rgb(87.564087%, 59.222412%, 53.979492%)" offset="0.453125"/><stop stop-opacity="1" stop-color="rgb(87.45575%, 58.866882%, 54.319763%)" offset="0.460938"/><stop stop-opacity="1" stop-color="rgb(87.348938%, 58.509827%, 54.660034%)" offset="0.46875"/><stop stop-opacity="1" stop-color="rgb(87.242126%, 58.154297%, 55.001831%)" offset="0.476563"/><stop stop-opacity="1" stop-color="rgb(87.133789%, 57.797241%, 55.342102%)" offset="0.484375"/><stop stop-opacity="1" stop-color="rgb(87.026978%, 57.440186%, 55.682373%)" offset="0.492188"/><stop stop-opacity="1" stop-color="rgb(86.920166%, 57.084656%, 56.02417%)" offset="0.5"/><stop stop-opacity="1" stop-color="rgb(86.813354%, 56.7276%, 56.364441%)" offset="0.507812"/><stop stop-opacity="1" stop-color="rgb(86.705017%, 56.37207%, 56.704712%)" offset="0.515625"/><stop stop-opacity="1" stop-color="rgb(86.598206%, 56.015015%, 57.044983%)" offset="0.523438"/><stop stop-opacity="1" stop-color="rgb(86.491394%, 55.659485%, 57.38678%)" offset="0.53125"/><stop stop-opacity="1" stop-color="rgb(86.383057%, 55.302429%, 57.727051%)" offset="0.539062"/><stop stop-opacity="1" stop-color="rgb(86.276245%, 54.946899%, 58.067322%)" offset="0.546875"/><stop stop-opacity="1" stop-color="rgb(86.169434%, 54.589844%, 58.407593%)" offset="0.554688"/><stop stop-opacity="1" stop-color="rgb(86.061096%, 54.234314%, 58.74939%)" offset="0.5625"/><stop stop-opacity="1" stop-color="rgb(85.954285%, 53.877258%, 59.089661%)" offset="0.570313"/><stop stop-opacity="1" stop-color="rgb(85.847473%, 53.520203%, 59.429932%)" offset="0.578125"/><stop stop-opacity="1" stop-color="rgb(85.739136%, 53.164673%, 59.771729%)" offset="0.585938"/><stop stop-opacity="1" stop-color="rgb(85.632324%, 52.807617%, 60.112%)" offset="0.59375"/><stop stop-opacity="1" stop-color="rgb(85.525513%, 52.452087%, 60.452271%)" offset="0.601563"/><stop stop-opacity="1" stop-color="rgb(85.417175%, 52.095032%, 60.792542%)" offset="0.609375"/><stop stop-opacity="1" stop-color="rgb(85.310364%, 51.739502%, 61.134338%)" offset="0.617188"/><stop stop-opacity="1" stop-color="rgb(85.203552%, 51.382446%, 61.474609%)" offset="0.625"/><stop stop-opacity="1" stop-color="rgb(85.095215%, 51.026917%, 61.81488%)" offset="0.632813"/><stop stop-opacity="1" stop-color="rgb(84.988403%, 50.669861%, 62.156677%)" offset="0.640625"/><stop stop-opacity="1" stop-color="rgb(84.881592%, 50.314331%, 62.496948%)" offset="0.648438"/><stop stop-opacity="1" stop-color="rgb(84.773254%, 49.957275%, 62.837219%)" offset="0.65625"/><stop stop-opacity="1" stop-color="rgb(84.666443%, 49.60022%, 63.17749%)" offset="0.664062"/><stop stop-opacity="1" stop-color="rgb(84.559631%, 49.24469%, 63.519287%)" offset="0.671875"/><stop stop-opacity="1" stop-color="rgb(84.45282%, 48.887634%, 63.859558%)" offset="0.679688"/><stop stop-opacity="1" stop-color="rgb(84.344482%, 48.532104%, 64.199829%)" offset="0.6875"/><stop stop-opacity="1" stop-color="rgb(84.237671%, 48.175049%, 64.5401%)" offset="0.695312"/><stop stop-opacity="1" stop-color="rgb(84.130859%, 47.819519%, 64.881897%)" offset="0.703125"/><stop stop-opacity="1" stop-color="rgb(84.022522%, 47.462463%, 65.222168%)" offset="0.710938"/><stop stop-opacity="1" stop-color="rgb(83.91571%, 47.106934%, 65.562439%)" offset="0.71875"/><stop stop-opacity="1" stop-color="rgb(83.808899%, 46.749878%, 65.904236%)" offset="0.726563"/><stop stop-opacity="1" stop-color="rgb(83.700562%, 46.394348%, 66.244507%)" offset="0.734375"/><stop stop-opacity="1" stop-color="rgb(83.59375%, 46.037292%, 66.584778%)" offset="0.742188"/><stop stop-opacity="1" stop-color="rgb(83.486938%, 45.681763%, 66.925049%)" offset="0.75"/><stop stop-opacity="1" stop-color="rgb(83.378601%, 45.324707%, 67.266846%)" offset="0.757813"/><stop stop-opacity="1" stop-color="rgb(83.27179%, 44.967651%, 67.607117%)" offset="0.765625"/><stop stop-opacity="1" stop-color="rgb(83.164978%, 44.612122%, 67.947388%)" offset="0.773438"/><stop stop-opacity="1" stop-color="rgb(83.056641%, 44.255066%, 68.289185%)" offset="0.78125"/><stop stop-opacity="1" stop-color="rgb(82.949829%, 43.899536%, 68.629456%)" offset="0.789063"/><stop stop-opacity="1" stop-color="rgb(82.843018%, 43.54248%, 68.969727%)" offset="0.796875"/><stop stop-opacity="1" stop-color="rgb(82.73468%, 43.186951%, 69.309998%)" offset="0.804688"/><stop stop-opacity="1" stop-color="rgb(82.627869%, 42.829895%, 69.651794%)" offset="0.8125"/><stop stop-opacity="1" stop-color="rgb(82.521057%, 42.474365%, 69.992065%)" offset="0.820313"/><stop stop-opacity="1" stop-color="rgb(82.41272%, 42.11731%, 70.332336%)" offset="0.828125"/><stop stop-opacity="1" stop-color="rgb(82.305908%, 41.76178%, 70.672607%)" offset="0.835938"/><stop stop-opacity="1" stop-color="rgb(82.199097%, 41.404724%, 71.014404%)" offset="0.84375"/><stop stop-opacity="1" stop-color="rgb(82.090759%, 41.047668%, 71.354675%)" offset="0.851563"/><stop stop-opacity="1" stop-color="rgb(81.983948%, 40.692139%, 71.694946%)" offset="0.859375"/><stop stop-opacity="1" stop-color="rgb(81.877136%, 40.335083%, 72.036743%)" offset="0.867188"/><stop stop-opacity="1" stop-color="rgb(81.770325%, 39.979553%, 72.377014%)" offset="0.875"/><stop stop-opacity="1" stop-color="rgb(81.661987%, 39.622498%, 72.717285%)" offset="0.882813"/><stop stop-opacity="1" stop-color="rgb(81.555176%, 39.266968%, 73.057556%)" offset="0.890625"/><stop stop-opacity="1" stop-color="rgb(81.448364%, 38.909912%, 73.399353%)" offset="0.898438"/><stop stop-opacity="1" stop-color="rgb(81.340027%, 38.554382%, 73.739624%)" offset="0.90625"/><stop stop-opacity="1" stop-color="rgb(81.233215%, 38.197327%, 74.079895%)" offset="0.914063"/><stop stop-opacity="1" stop-color="rgb(81.126404%, 37.841797%, 74.421692%)" offset="0.921875"/><stop stop-opacity="1" stop-color="rgb(81.018066%, 37.484741%, 74.761963%)" offset="0.929688"/><stop stop-opacity="1" stop-color="rgb(80.911255%, 37.127686%, 75.102234%)" offset="0.9375"/><stop stop-opacity="1" stop-color="rgb(80.804443%, 36.772156%, 75.442505%)" offset="0.945313"/><stop stop-opacity="1" stop-color="rgb(80.696106%, 36.4151%, 75.784302%)" offset="0.953125"/><stop stop-opacity="1" stop-color="rgb(80.589294%, 36.05957%, 76.124573%)" offset="0.960938"/><stop stop-opacity="1" stop-color="rgb(80.482483%, 35.702515%, 76.464844%)" offset="0.96875"/><stop stop-opacity="1" stop-color="rgb(80.374146%, 35.346985%, 76.805115%)" offset="0.976563"/><stop stop-opacity="1" stop-color="rgb(80.267334%, 34.989929%, 77.146912%)" offset="0.984375"/><stop stop-opacity="1" stop-color="rgb(80.160522%, 34.634399%, 77.487183%)" offset="0.992188"/><stop stop-opacity="1" stop-color="rgb(80.052185%, 34.277344%, 77.827454%)" offset="1"/></linearGradient></defs><g clip-path="url(#id1)"><g clip-path="url(#id2)"><path fill="url(#id3)" d="M 6.289062 90.867188 L 6.289062 658.332031 L 743.539062 658.332031 L 743.539062 90.867188 Z M 6.289062 90.867188 " fill-rule="nonzero"/></g></g></svg>