<svg xmlns="http://www.w3.org/2000/svg" xmlns:xlink="http://www.w3.org/1999/xlink" width="1000" zoomAndPan="magnify" viewBox="0 0 750 749.999995" height="1000" preserveAspectRatio="xMidYMid meet" version="1.0"><defs><clipPath id="id1"><path d="M 79 11.214844 L 670.71875 11.214844 L 670.71875 738.714844 L 79 738.714844 Z M 79 11.214844 " clip-rule="nonzero"/></clipPath></defs><path fill="#0a3542" d="M 374.84375 314.707031 C 368.359375 314.707031 363.109375 319.960938 363.109375 326.445312 C 363.109375 332.933594 368.359375 338.191406 374.84375 338.191406 C 395.117188 338.191406 411.605469 354.6875 411.605469 374.964844 C 411.605469 395.242188 395.117188 411.738281 374.84375 411.738281 C 354.566406 411.738281 338.078125 395.242188 338.078125 374.964844 C 338.078125 368.480469 332.828125 363.21875 326.34375 363.21875 C 319.855469 363.21875 314.605469 368.480469 314.605469 374.964844 C 314.605469 408.191406 341.628906 435.222656 374.84375 435.222656 C 408.058594 435.222656 435.082031 408.191406 435.082031 374.964844 C 435.082031 341.734375 408.058594 314.707031 374.84375 314.707031 " fill-opacity="1" fill-rule="nonzero"/><g clip-path="url(#id1)"><path fill="#0a3542" d="M 426.261719 663.792969 C 426.261719 692.15625 403.199219 715.230469 374.84375 715.230469 C 346.488281 715.230469 323.429688 692.15625 323.429688 663.792969 C 323.429688 635.425781 346.488281 612.355469 374.84375 612.355469 C 403.199219 612.355469 426.261719 635.425781 426.261719 663.792969 Z M 323.429688 86.136719 C 323.429688 57.777344 346.488281 34.703125 374.84375 34.703125 C 403.199219 34.703125 426.261719 57.777344 426.261719 86.136719 C 426.261719 114.5 403.199219 137.574219 374.84375 137.574219 C 346.488281 137.574219 323.429688 114.5 323.429688 86.136719 Z M 496.078125 374.964844 C 496.078125 343.894531 484.332031 315.523438 465.054688 294.039062 C 506.828125 310.578125 541.824219 338.558594 564.296875 374.964844 C 541.824219 411.367188 506.828125 439.355469 465.054688 455.894531 C 484.332031 434.410156 496.078125 406.035156 496.078125 374.964844 Z M 284.632812 455.894531 C 242.859375 439.355469 207.867188 411.367188 185.390625 374.964844 C 207.867188 338.558594 242.859375 310.578125 284.632812 294.039062 C 265.355469 315.523438 253.609375 343.894531 253.609375 374.964844 C 253.609375 406.035156 265.355469 434.410156 284.632812 455.894531 Z M 277.082031 374.964844 C 277.082031 321.035156 320.941406 277.164062 374.84375 277.164062 C 428.746094 277.164062 472.601562 321.035156 472.601562 374.964844 C 472.601562 428.890625 428.746094 472.773438 374.84375 472.773438 C 320.941406 472.773438 277.082031 428.890625 277.082031 374.964844 Z M 374.84375 236.425781 C 420.90625 236.425781 464.296875 253.695312 499.964844 284.417969 C 463.210938 264.632812 420.199219 253.671875 374.84375 253.671875 C 329.496094 253.671875 286.484375 264.632812 249.730469 284.414062 C 285.398438 253.695312 328.789062 236.425781 374.84375 236.425781 Z M 374.84375 513.507812 C 328.789062 513.507812 285.402344 496.234375 249.730469 465.523438 C 286.488281 485.296875 329.5 496.253906 374.84375 496.253906 C 420.191406 496.253906 463.203125 485.296875 499.953125 465.519531 C 464.289062 496.234375 420.90625 513.507812 374.84375 513.507812 Z M 650.441406 567.261719 C 644.382812 569.554688 641.324219 576.335938 643.617188 582.402344 C 645.8125 588.207031 646.925781 594.332031 646.925781 600.609375 C 646.925781 628.976562 623.859375 652.046875 595.515625 652.046875 C 567.167969 652.046875 544.101562 628.976562 544.101562 600.609375 C 544.101562 572.242188 567.167969 549.175781 595.515625 549.175781 C 605.390625 549.175781 614.957031 551.972656 623.214844 557.265625 C 628.664062 560.769531 635.921875 559.183594 639.425781 553.722656 C 642.929688 548.265625 641.34375 540.996094 635.882812 537.503906 C 627.160156 531.894531 617.425781 528.21875 607.257812 526.617188 L 607.257812 484.515625 C 607.257812 478.027344 602 472.773438 595.515625 472.773438 L 572.128906 472.773438 L 547.058594 450.4375 C 563.652344 429.84375 577.792969 406.035156 588.78125 379.449219 C 588.789062 379.429688 588.792969 379.410156 588.800781 379.394531 C 588.820312 379.355469 588.824219 379.316406 588.839844 379.277344 C 588.988281 378.898438 589.117188 378.515625 589.230469 378.125 C 589.273438 377.964844 589.304688 377.800781 589.351562 377.636719 C 589.414062 377.359375 589.464844 377.082031 589.507812 376.804688 C 589.539062 376.621094 589.570312 376.445312 589.589844 376.261719 C 589.628906 375.9375 589.640625 375.621094 589.644531 375.300781 C 589.652344 375.074219 589.652344 374.851562 589.644531 374.625 C 589.640625 374.308594 589.628906 373.988281 589.589844 373.671875 C 589.570312 373.488281 589.539062 373.304688 589.507812 373.121094 C 589.464844 372.84375 589.414062 372.566406 589.351562 372.289062 C 589.304688 372.128906 589.273438 371.964844 589.230469 371.808594 C 589.117188 371.417969 588.988281 371.03125 588.839844 370.644531 C 588.824219 370.613281 588.820312 370.570312 588.800781 370.539062 C 588.792969 370.519531 588.789062 370.496094 588.78125 370.476562 C 577.792969 343.890625 563.652344 320.082031 547.058594 299.488281 L 572.128906 277.164062 L 595.515625 277.164062 C 602 277.164062 607.257812 271.902344 607.257812 265.417969 L 607.257812 223.308594 C 617.421875 221.703125 627.15625 218.027344 635.882812 212.433594 C 641.34375 208.933594 642.929688 201.671875 639.4375 196.214844 C 635.921875 190.742188 628.664062 189.167969 623.214844 192.660156 C 614.957031 197.960938 605.390625 200.757812 595.515625 200.757812 C 567.167969 200.757812 544.101562 177.675781 544.101562 149.3125 C 544.101562 120.953125 567.167969 97.882812 595.515625 97.882812 C 623.859375 97.882812 646.925781 120.953125 646.925781 149.3125 C 646.925781 155.597656 645.8125 161.722656 643.617188 167.535156 C 641.324219 173.597656 644.382812 180.371094 650.441406 182.671875 C 656.480469 184.96875 663.265625 181.917969 665.570312 175.84375 C 668.777344 167.375 670.402344 158.445312 670.402344 149.3125 C 670.402344 108.007812 636.8125 74.398438 595.515625 74.398438 C 554.226562 74.398438 520.628906 108.007812 520.628906 149.3125 C 520.628906 186.636719 548.046875 217.664062 583.78125 223.316406 L 583.78125 253.671875 L 567.660156 253.671875 C 564.78125 253.671875 562.003906 254.738281 559.859375 256.644531 L 531.507812 281.894531 C 491.886719 240.964844 441.261719 216.398438 386.578125 213.3125 L 386.578125 160.132812 C 422.316406 154.480469 449.734375 123.453125 449.734375 86.136719 C 449.734375 44.824219 416.132812 11.214844 374.84375 11.214844 C 333.554688 11.214844 299.953125 44.824219 299.953125 86.136719 C 299.953125 123.453125 327.367188 154.480469 363.109375 160.132812 L 363.109375 213.3125 C 308.417969 216.394531 257.800781 240.960938 218.183594 281.894531 L 189.828125 256.644531 C 187.679688 254.734375 184.902344 253.671875 182.027344 253.671875 L 165.917969 253.671875 L 165.917969 223.316406 C 201.652344 217.664062 229.066406 186.636719 229.066406 149.3125 C 229.066406 108.007812 195.472656 74.398438 154.175781 74.398438 C 112.886719 74.398438 79.285156 108.007812 79.285156 149.3125 C 79.285156 158.445312 80.90625 167.375 84.121094 175.84375 C 86.414062 181.90625 93.203125 184.957031 99.246094 182.671875 C 105.3125 180.371094 108.359375 173.597656 106.074219 167.535156 C 103.871094 161.722656 102.761719 155.597656 102.761719 149.3125 C 102.761719 120.953125 125.828125 97.882812 154.175781 97.882812 C 182.53125 97.882812 205.589844 120.953125 205.589844 149.3125 C 205.589844 177.675781 182.53125 200.757812 154.175781 200.757812 C 144.308594 200.757812 134.738281 197.960938 126.484375 192.660156 C 121.027344 189.167969 113.777344 190.742188 110.261719 196.214844 C 106.769531 201.671875 108.355469 208.933594 113.808594 212.433594 C 122.542969 218.027344 132.277344 221.703125 142.441406 223.308594 L 142.441406 265.417969 C 142.441406 271.902344 147.691406 277.164062 154.175781 277.164062 L 177.5625 277.164062 L 202.636719 299.488281 C 186.046875 320.074219 171.914062 343.882812 160.921875 370.464844 C 160.847656 370.652344 160.785156 370.847656 160.714844 371.039062 C 160.640625 371.265625 160.558594 371.480469 160.492188 371.707031 C 160.425781 371.953125 160.367188 372.199219 160.3125 372.453125 C 160.273438 372.617188 160.242188 372.78125 160.214844 372.945312 C 160.164062 373.222656 160.121094 373.496094 160.089844 373.773438 C 160.082031 373.875 160.078125 373.972656 160.070312 374.074219 C 160.027344 374.667969 160.027344 375.261719 160.070312 375.851562 C 160.078125 375.949219 160.082031 376.050781 160.089844 376.152344 C 160.121094 376.429688 160.164062 376.703125 160.214844 376.980469 C 160.242188 377.144531 160.273438 377.308594 160.3125 377.480469 C 160.367188 377.726562 160.425781 377.972656 160.492188 378.222656 C 160.558594 378.445312 160.640625 378.667969 160.714844 378.886719 C 160.785156 379.082031 160.847656 379.273438 160.921875 379.46875 C 171.914062 406.046875 186.046875 429.851562 202.636719 450.445312 L 177.5625 472.773438 L 154.175781 472.773438 C 147.691406 472.773438 142.441406 478.027344 142.441406 484.515625 L 142.441406 526.617188 C 132.273438 528.21875 122.539062 531.894531 113.808594 537.503906 C 108.355469 540.996094 106.769531 548.265625 110.273438 553.722656 C 113.757812 559.183594 121.027344 560.769531 126.484375 557.265625 C 134.738281 551.972656 144.308594 549.175781 154.175781 549.175781 C 182.53125 549.175781 205.589844 572.242188 205.589844 600.609375 C 205.589844 628.976562 182.53125 652.046875 154.175781 652.046875 C 125.828125 652.046875 102.761719 628.976562 102.761719 600.609375 C 102.761719 594.332031 103.871094 588.207031 106.074219 582.402344 C 108.359375 576.335938 105.3125 569.554688 99.246094 567.261719 C 93.21875 564.960938 86.417969 568.023438 84.121094 574.085938 C 80.90625 582.554688 79.285156 591.484375 79.285156 600.609375 C 79.285156 641.925781 112.886719 675.53125 154.175781 675.53125 C 195.472656 675.53125 229.066406 641.925781 229.066406 600.609375 C 229.066406 563.292969 201.652344 532.269531 165.917969 526.617188 L 165.917969 496.253906 L 182.027344 496.253906 C 184.902344 496.253906 187.679688 495.207031 189.828125 493.285156 L 218.183594 468.039062 C 257.800781 508.964844 308.425781 533.53125 363.109375 536.621094 L 363.109375 589.800781 C 327.367188 595.453125 299.953125 626.476562 299.953125 663.792969 C 299.953125 705.105469 333.554688 738.714844 374.84375 738.714844 C 416.132812 738.714844 449.734375 705.105469 449.734375 663.792969 C 449.734375 626.476562 422.316406 595.453125 386.578125 589.800781 L 386.578125 536.621094 C 441.261719 533.53125 491.886719 508.964844 531.507812 468.03125 L 559.859375 493.285156 C 562.003906 495.207031 564.78125 496.253906 567.660156 496.253906 L 583.78125 496.253906 L 583.78125 526.617188 C 548.046875 532.269531 520.628906 563.292969 520.628906 600.609375 C 520.628906 641.925781 554.226562 675.53125 595.515625 675.53125 C 636.8125 675.53125 670.402344 641.925781 670.402344 600.609375 C 670.402344 591.484375 668.777344 582.554688 665.570312 574.085938 C 663.265625 568.019531 656.476562 564.941406 650.441406 567.261719 " fill-opacity="1" fill-rule="nonzero"/></g></svg>