<svg xmlns="http://www.w3.org/2000/svg" xmlns:xlink="http://www.w3.org/1999/xlink" width="1000" zoomAndPan="magnify" viewBox="0 0 750 749.999995" height="1000" preserveAspectRatio="xMidYMid meet" version="1.0"><defs><clipPath id="id1"><path d="M 59.269531 106.5625 L 458.980469 106.5625 L 458.980469 739.429688 L 59.269531 739.429688 Z M 59.269531 106.5625 " clip-rule="nonzero"/></clipPath><clipPath id="id2"><path d="M 291 10.429688 L 690.632812 10.429688 L 690.632812 643 L 291 643 Z M 291 10.429688 " clip-rule="nonzero"/></clipPath></defs><path fill="#ffbd59" d="M 374.949219 215.507812 L 226.421875 301.261719 L 226.421875 472.769531 L 333.160156 534.394531 L 333.160156 437.890625 L 309.996094 424.519531 L 309.996094 349.515625 L 374.949219 312.015625 L 439.902344 349.515625 L 439.902344 424.519531 L 416.738281 437.890625 L 416.738281 534.394531 L 523.476562 472.769531 L 523.476562 301.261719 L 374.949219 215.507812 " fill-opacity="1" fill-rule="nonzero"/><g clip-path="url(#id1)"><path fill="#ee2558" d="M 374.949219 642.964844 L 142.84375 508.960938 L 142.84375 240.945312 L 291.375 155.191406 L 207.796875 106.941406 L 59.269531 192.695312 L 59.269531 557.210938 L 374.949219 739.472656 L 458.523438 691.21875 L 374.949219 642.964844 " fill-opacity="1" fill-rule="nonzero"/></g><g clip-path="url(#id2)"><path fill="#ee2558" d="M 374.949219 10.433594 L 291.375 58.6875 L 374.949219 106.941406 L 607.050781 240.945312 L 607.050781 508.960938 L 458.523438 594.714844 L 542.097656 642.964844 L 690.625 557.210938 L 690.625 192.695312 L 374.949219 10.433594 " fill-opacity="1" fill-rule="nonzero"/></g></svg>