<svg xmlns="http://www.w3.org/2000/svg" xmlns:xlink="http://www.w3.org/1999/xlink" width="1280" zoomAndPan="magnify" viewBox="0 0 960 599.999999" height="800" preserveAspectRatio="xMidYMid meet" version="1.0"><defs><filter x="0%" y="0%" width="100%" height="100%" id="id1"><feColorMatrix values="0 0 0 0 1 0 0 0 0 1 0 0 0 0 1 0 0 0 1 0" color-interpolation-filters="sRGB"/></filter><clipPath id="id2"><path d="M 21.605469 134.976562 L 938.105469 134.976562 L 938.105469 464.976562 L 21.605469 464.976562 Z M 21.605469 134.976562 " clip-rule="nonzero"/></clipPath><clipPath id="id3"><path d="M 21.605469 134.976562 L 938.105469 134.976562 L 938.105469 429 L 21.605469 429 Z M 21.605469 134.976562 " clip-rule="nonzero"/></clipPath><clipPath id="id4"><path d="M 699 336 L 829 336 L 829 464.976562 L 699 464.976562 Z M 699 336 " clip-rule="nonzero"/></clipPath><clipPath id="id5"><path d="M 131 336 L 260 336 L 260 464.976562 L 131 464.976562 Z M 131 336 " clip-rule="nonzero"/></clipPath><clipPath id="id6"><path d="M 21.605469 244 L 938.105469 244 L 938.105469 429 L 21.605469 429 Z M 21.605469 244 " clip-rule="nonzero"/></clipPath><mask id="id7"><g filter="url(#id1)"><rect x="-96" width="1152" fill="#000000" y="-60" height="719.999999" fill-opacity="0.498"/></g></mask><clipPath id="id8"><path d="M 257 0.800781 L 661 0.800781 L 661 184.398438 L 257 184.398438 Z M 257 0.800781 " clip-rule="nonzero"/></clipPath><clipPath id="id9"><path d="M 0.605469 129 L 93 129 L 93 148 L 0.605469 148 Z M 0.605469 129 " clip-rule="nonzero"/></clipPath><clipPath id="id10"><path d="M 183 0.800781 L 203 0.800781 L 203 56 L 183 56 Z M 183 0.800781 " clip-rule="nonzero"/></clipPath><clipPath id="id11"><path d="M 825 129 L 917.105469 129 L 917.105469 148 L 825 148 Z M 825 129 " clip-rule="nonzero"/></clipPath><clipPath id="id12"><rect x="0" width="918" y="0" height="185"/></clipPath><mask id="id13"><g filter="url(#id1)"><rect x="-96" width="1152" fill="#000000" y="-60" height="719.999999" fill-opacity="0.698"/></g></mask><clipPath id="id14"><path d="M 220 0.921875 L 624 0.921875 L 624 19.398438 L 220 19.398438 Z M 220 0.921875 " clip-rule="nonzero"/></clipPath><clipPath id="id15"><path d="M 788 0.921875 L 861.921875 0.921875 L 861.921875 19.398438 L 788 19.398438 Z M 788 0.921875 " clip-rule="nonzero"/></clipPath><clipPath id="id16"><path d="M 0.078125 0.921875 L 56 0.921875 L 56 19.398438 L 0.078125 19.398438 Z M 0.078125 0.921875 " clip-rule="nonzero"/></clipPath><clipPath id="id17"><rect x="0" width="862" y="0" height="20"/></clipPath><clipPath id="id18"><path d="M 21.605469 354 L 938.105469 354 L 938.105469 429 L 21.605469 429 Z M 21.605469 354 " clip-rule="nonzero"/></clipPath><mask id="id19"><g filter="url(#id1)"><rect x="-96" width="1152" fill="#000000" y="-60" height="719.999999" fill-opacity="0.2"/></g></mask><clipPath id="id20"><path d="M 825 0.960938 L 917.105469 0.960938 L 917.105469 74.398438 L 825 74.398438 Z M 825 0.960938 " clip-rule="nonzero"/></clipPath><clipPath id="id21"><path d="M 0.605469 0.960938 L 93 0.960938 L 93 74.398438 L 0.605469 74.398438 Z M 0.605469 0.960938 " clip-rule="nonzero"/></clipPath><clipPath id="id22"><rect x="0" width="918" y="0" height="75"/></clipPath></defs><g clip-path="url(#id2)"><path fill="#2e1b5b" d="M 919.765625 373.3125 L 919.765625 336.644531 L 901.4375 336.644531 L 901.4375 318.3125 L 883.109375 318.3125 L 883.109375 299.976562 L 864.777344 299.976562 L 864.777344 281.644531 L 828.117188 281.644531 L 828.117188 263.3125 L 791.460938 263.3125 L 791.460938 244.976562 L 608.164062 244.976562 L 608.164062 226.644531 L 589.832031 226.644531 L 589.832031 208.3125 L 571.503906 208.3125 L 571.503906 189.976562 L 553.175781 189.976562 L 553.175781 171.644531 L 534.84375 171.644531 L 534.84375 153.3125 L 516.515625 153.3125 L 516.515625 134.976562 L 241.570312 134.976562 L 241.570312 153.3125 L 223.238281 153.3125 L 223.238281 171.644531 L 204.910156 171.644531 L 204.910156 189.976562 L 186.582031 189.976562 L 186.582031 208.3125 L 168.25 208.3125 L 168.25 226.644531 L 149.921875 226.644531 L 149.921875 244.976562 L 76.601562 244.976562 L 76.601562 263.3125 L 58.273438 263.3125 L 58.273438 281.644531 L 39.945312 281.644531 L 39.945312 299.976562 L 21.613281 299.976562 L 21.613281 391.644531 L 39.945312 391.644531 L 39.945312 409.976562 L 58.273438 409.976562 L 58.273438 428.3125 L 149.921875 428.3125 L 149.921875 446.644531 L 168.25 446.644531 L 168.25 464.976562 L 223.238281 464.976562 L 223.238281 446.644531 L 241.570312 446.644531 L 241.570312 428.3125 L 718.140625 428.3125 L 718.140625 446.644531 L 736.46875 446.644531 L 736.46875 464.976562 L 791.460938 464.976562 L 791.460938 446.644531 L 809.789062 446.644531 L 809.789062 428.3125 L 919.765625 428.3125 L 919.765625 409.976562 L 938.097656 409.976562 L 938.097656 373.3125 Z M 919.765625 373.3125 " fill-opacity="1" fill-rule="nonzero"/></g><path fill="#2f3b8e" d="M 626.492188 263.3125 L 149.921875 263.3125 L 241.570312 153.3125 L 516.515625 153.3125 Z M 626.492188 263.3125 " fill-opacity="1" fill-rule="nonzero"/><g clip-path="url(#id3)"><path fill="#ff0068" d="M 919.765625 373.3125 L 919.765625 336.644531 L 901.4375 336.644531 L 901.4375 318.3125 L 883.109375 318.3125 L 883.109375 299.976562 L 864.777344 299.976562 L 864.777344 281.644531 L 828.117188 281.644531 L 828.117188 263.3125 L 791.460938 263.3125 L 791.460938 244.976562 L 608.164062 244.976562 L 608.164062 226.644531 L 589.832031 226.644531 L 589.832031 244.976562 L 571.503906 244.976562 L 571.503906 226.644531 L 553.175781 226.644531 L 553.175781 244.976562 L 406.535156 244.976562 L 406.535156 153.3125 L 516.515625 153.3125 L 516.515625 134.976562 L 241.570312 134.976562 L 241.570312 153.3125 L 223.238281 153.3125 L 223.238281 171.644531 L 204.910156 171.644531 L 204.910156 189.976562 L 186.582031 189.976562 L 186.582031 208.3125 L 168.25 208.3125 L 168.25 226.644531 L 149.921875 226.644531 L 149.921875 244.976562 L 76.601562 244.976562 L 76.601562 263.3125 L 58.273438 263.3125 L 58.273438 281.644531 L 39.945312 281.644531 L 39.945312 299.976562 L 21.613281 299.976562 L 21.613281 391.644531 L 39.945312 391.644531 L 39.945312 409.976562 L 58.273438 409.976562 L 58.273438 428.3125 L 919.765625 428.3125 L 919.765625 409.976562 L 938.097656 409.976562 L 938.097656 373.3125 Z M 204.910156 226.644531 L 204.910156 208.3125 L 223.238281 208.3125 L 223.238281 189.976562 L 241.570312 189.976562 L 241.570312 171.644531 L 259.898438 171.644531 L 259.898438 153.3125 L 388.207031 153.3125 L 388.207031 244.976562 L 186.582031 244.976562 L 186.582031 226.644531 Z M 204.910156 226.644531 " fill-opacity="1" fill-rule="nonzero"/></g><path fill="#ff0068" d="M 516.515625 153.3125 L 534.84375 153.3125 L 534.84375 171.644531 L 516.515625 171.644531 Z M 516.515625 153.3125 " fill-opacity="1" fill-rule="nonzero"/><path fill="#ff0068" d="M 534.84375 171.644531 L 553.175781 171.644531 L 553.175781 189.976562 L 534.84375 189.976562 Z M 534.84375 171.644531 " fill-opacity="1" fill-rule="nonzero"/><path fill="#ff0068" d="M 553.175781 189.976562 L 571.503906 189.976562 L 571.503906 208.3125 L 553.175781 208.3125 Z M 553.175781 189.976562 " fill-opacity="1" fill-rule="nonzero"/><path fill="#ff0068" d="M 571.503906 208.3125 L 589.832031 208.3125 L 589.832031 226.644531 L 571.503906 226.644531 Z M 571.503906 208.3125 " fill-opacity="1" fill-rule="nonzero"/><path fill="#ff0068" d="M 516.515625 208.3125 L 553.175781 208.3125 L 553.175781 226.644531 L 516.515625 226.644531 Z M 516.515625 208.3125 " fill-opacity="1" fill-rule="nonzero"/><path fill="#a509a8" d="M 718.140625 354.976562 L 809.789062 354.976562 L 809.789062 446.644531 L 718.140625 446.644531 Z M 718.140625 354.976562 " fill-opacity="1" fill-rule="nonzero"/><g clip-path="url(#id4)"><path fill="#2f3b8e" d="M 809.789062 373.3125 L 809.789062 354.976562 L 791.460938 354.976562 L 791.460938 336.644531 L 736.46875 336.644531 L 736.46875 354.976562 L 718.140625 354.976562 L 718.140625 373.3125 L 699.8125 373.3125 L 699.8125 428.3125 L 718.140625 428.3125 L 718.140625 446.644531 L 736.46875 446.644531 L 736.46875 464.976562 L 791.460938 464.976562 L 791.460938 446.644531 L 809.789062 446.644531 L 809.789062 428.3125 L 828.117188 428.3125 L 828.117188 373.3125 Z M 754.800781 428.3125 L 754.800781 409.976562 L 736.46875 409.976562 L 736.46875 391.644531 L 754.800781 391.644531 L 754.800781 373.3125 L 773.128906 373.3125 L 773.128906 391.644531 L 791.460938 391.644531 L 791.460938 409.976562 L 773.128906 409.976562 L 773.128906 428.3125 Z M 754.800781 428.3125 " fill-opacity="1" fill-rule="nonzero"/></g><path fill="#2e1b5b" d="M 754.800781 391.644531 L 773.128906 391.644531 L 773.128906 409.976562 L 754.800781 409.976562 Z M 754.800781 391.644531 " fill-opacity="1" fill-rule="nonzero"/><path fill="#2e1b5b" d="M 736.46875 336.644531 L 791.460938 336.644531 L 791.460938 354.976562 L 736.46875 354.976562 Z M 736.46875 336.644531 " fill-opacity="0.498" fill-rule="nonzero"/><path fill="#2e1b5b" d="M 718.140625 354.976562 L 736.46875 354.976562 L 736.46875 373.3125 L 718.140625 373.3125 Z M 718.140625 354.976562 " fill-opacity="0.498" fill-rule="nonzero"/><path fill="#2e1b5b" d="M 699.8125 373.3125 L 718.140625 373.3125 L 718.140625 428.3125 L 699.8125 428.3125 Z M 699.8125 373.3125 " fill-opacity="0.498" fill-rule="nonzero"/><path fill="#2e1b5b" d="M 791.460938 354.976562 L 809.789062 354.976562 L 809.789062 373.3125 L 791.460938 373.3125 Z M 791.460938 354.976562 " fill-opacity="0.498" fill-rule="nonzero"/><path fill="#2e1b5b" d="M 809.789062 373.3125 L 828.117188 373.3125 L 828.117188 428.3125 L 809.789062 428.3125 Z M 809.789062 373.3125 " fill-opacity="0.498" fill-rule="nonzero"/><path fill="#2e1b5b" d="M 718.140625 318.3125 L 809.789062 318.3125 L 809.789062 336.644531 L 718.140625 336.644531 Z M 718.140625 318.3125 " fill-opacity="1" fill-rule="nonzero"/><path fill="#2e1b5b" d="M 791.460938 336.644531 L 828.117188 336.644531 L 828.117188 354.976562 L 791.460938 354.976562 Z M 791.460938 336.644531 " fill-opacity="1" fill-rule="nonzero"/><path fill="#2e1b5b" d="M 809.789062 354.976562 L 846.449219 354.976562 L 846.449219 373.3125 L 809.789062 373.3125 Z M 809.789062 354.976562 " fill-opacity="1" fill-rule="nonzero"/><path fill="#2e1b5b" d="M 828.117188 373.3125 L 846.449219 373.3125 L 846.449219 428.3125 L 828.117188 428.3125 Z M 828.117188 373.3125 " fill-opacity="1" fill-rule="nonzero"/><path fill="#2e1b5b" d="M 699.8125 336.644531 L 736.46875 336.644531 L 736.46875 354.976562 L 699.8125 354.976562 Z M 699.8125 336.644531 " fill-opacity="1" fill-rule="nonzero"/><path fill="#2e1b5b" d="M 681.480469 354.976562 L 718.140625 354.976562 L 718.140625 373.3125 L 681.480469 373.3125 Z M 681.480469 354.976562 " fill-opacity="1" fill-rule="nonzero"/><path fill="#2e1b5b" d="M 681.480469 373.3125 L 699.8125 373.3125 L 699.8125 428.3125 L 681.480469 428.3125 Z M 681.480469 373.3125 " fill-opacity="1" fill-rule="nonzero"/><path fill="#a509a8" d="M 149.921875 354.976562 L 241.570312 354.976562 L 241.570312 446.644531 L 149.921875 446.644531 Z M 149.921875 354.976562 " fill-opacity="1" fill-rule="nonzero"/><g clip-path="url(#id5)"><path fill="#2f3b8e" d="M 241.570312 373.3125 L 241.570312 354.976562 L 223.238281 354.976562 L 223.238281 336.644531 L 168.25 336.644531 L 168.25 354.976562 L 149.921875 354.976562 L 149.921875 373.3125 L 131.59375 373.3125 L 131.59375 428.3125 L 149.921875 428.3125 L 149.921875 446.644531 L 168.25 446.644531 L 168.25 464.976562 L 223.238281 464.976562 L 223.238281 446.644531 L 241.570312 446.644531 L 241.570312 428.3125 L 259.898438 428.3125 L 259.898438 373.3125 Z M 186.582031 428.3125 L 186.582031 409.976562 L 168.25 409.976562 L 168.25 391.644531 L 186.582031 391.644531 L 186.582031 373.3125 L 204.910156 373.3125 L 204.910156 391.644531 L 223.238281 391.644531 L 223.238281 409.976562 L 204.910156 409.976562 L 204.910156 428.3125 Z M 186.582031 428.3125 " fill-opacity="1" fill-rule="nonzero"/></g><path fill="#2e1b5b" d="M 186.582031 391.644531 L 204.910156 391.644531 L 204.910156 409.976562 L 186.582031 409.976562 Z M 186.582031 391.644531 " fill-opacity="1" fill-rule="nonzero"/><path fill="#2e1b5b" d="M 168.25 336.644531 L 223.238281 336.644531 L 223.238281 354.976562 L 168.25 354.976562 Z M 168.25 336.644531 " fill-opacity="0.498" fill-rule="nonzero"/><path fill="#2e1b5b" d="M 149.921875 354.976562 L 168.25 354.976562 L 168.25 373.3125 L 149.921875 373.3125 Z M 149.921875 354.976562 " fill-opacity="0.498" fill-rule="nonzero"/><path fill="#2e1b5b" d="M 131.59375 373.3125 L 149.921875 373.3125 L 149.921875 428.3125 L 131.59375 428.3125 Z M 131.59375 373.3125 " fill-opacity="0.498" fill-rule="nonzero"/><path fill="#2e1b5b" d="M 223.238281 354.976562 L 241.570312 354.976562 L 241.570312 373.3125 L 223.238281 373.3125 Z M 223.238281 354.976562 " fill-opacity="0.498" fill-rule="nonzero"/><path fill="#2e1b5b" d="M 241.570312 373.3125 L 259.898438 373.3125 L 259.898438 428.3125 L 241.570312 428.3125 Z M 241.570312 373.3125 " fill-opacity="0.498" fill-rule="nonzero"/><path fill="#2e1b5b" d="M 149.921875 318.3125 L 241.570312 318.3125 L 241.570312 336.644531 L 149.921875 336.644531 Z M 149.921875 318.3125 " fill-opacity="1" fill-rule="nonzero"/><path fill="#2e1b5b" d="M 223.238281 336.644531 L 259.898438 336.644531 L 259.898438 354.976562 L 223.238281 354.976562 Z M 223.238281 336.644531 " fill-opacity="1" fill-rule="nonzero"/><path fill="#2e1b5b" d="M 241.570312 354.976562 L 278.230469 354.976562 L 278.230469 373.3125 L 241.570312 373.3125 Z M 241.570312 354.976562 " fill-opacity="1" fill-rule="nonzero"/><path fill="#2e1b5b" d="M 259.898438 373.3125 L 278.230469 373.3125 L 278.230469 428.3125 L 259.898438 428.3125 Z M 259.898438 373.3125 " fill-opacity="1" fill-rule="nonzero"/><path fill="#2e1b5b" d="M 131.59375 336.644531 L 168.25 336.644531 L 168.25 354.976562 L 131.59375 354.976562 Z M 131.59375 336.644531 " fill-opacity="1" fill-rule="nonzero"/><path fill="#2e1b5b" d="M 113.261719 354.976562 L 149.921875 354.976562 L 149.921875 373.3125 L 113.261719 373.3125 Z M 113.261719 354.976562 " fill-opacity="1" fill-rule="nonzero"/><path fill="#2e1b5b" d="M 113.261719 373.3125 L 131.59375 373.3125 L 131.59375 428.3125 L 113.261719 428.3125 Z M 113.261719 373.3125 " fill-opacity="1" fill-rule="nonzero"/><path fill="#a509a8" d="M 204.910156 226.644531 L 223.238281 226.644531 L 223.238281 244.976562 L 204.910156 244.976562 Z M 204.910156 226.644531 " fill-opacity="1" fill-rule="nonzero"/><path fill="#a509a8" d="M 223.238281 208.3125 L 241.570312 208.3125 L 241.570312 226.644531 L 223.238281 226.644531 Z M 223.238281 208.3125 " fill-opacity="1" fill-rule="nonzero"/><path fill="#a509a8" d="M 241.570312 189.976562 L 259.898438 189.976562 L 259.898438 208.3125 L 241.570312 208.3125 Z M 241.570312 189.976562 " fill-opacity="1" fill-rule="nonzero"/><path fill="#a509a8" d="M 259.898438 171.644531 L 278.230469 171.644531 L 278.230469 189.976562 L 259.898438 189.976562 Z M 259.898438 171.644531 " fill-opacity="1" fill-rule="nonzero"/><path fill="#a509a8" d="M 278.230469 153.3125 L 296.558594 153.3125 L 296.558594 171.644531 L 278.230469 171.644531 Z M 278.230469 153.3125 " fill-opacity="1" fill-rule="nonzero"/><path fill="#a509a8" d="M 259.898438 226.644531 L 278.230469 226.644531 L 278.230469 244.976562 L 259.898438 244.976562 Z M 259.898438 226.644531 " fill-opacity="1" fill-rule="nonzero"/><path fill="#a509a8" d="M 278.230469 208.3125 L 296.558594 208.3125 L 296.558594 226.644531 L 278.230469 226.644531 Z M 278.230469 208.3125 " fill-opacity="1" fill-rule="nonzero"/><path fill="#a509a8" d="M 296.558594 189.976562 L 314.886719 189.976562 L 314.886719 208.3125 L 296.558594 208.3125 Z M 296.558594 189.976562 " fill-opacity="1" fill-rule="nonzero"/><path fill="#a509a8" d="M 314.886719 171.644531 L 333.21875 171.644531 L 333.21875 189.976562 L 314.886719 189.976562 Z M 314.886719 171.644531 " fill-opacity="1" fill-rule="nonzero"/><path fill="#a509a8" d="M 333.21875 153.3125 L 351.546875 153.3125 L 351.546875 171.644531 L 333.21875 171.644531 Z M 333.21875 153.3125 " fill-opacity="1" fill-rule="nonzero"/><path fill="#a509a8" d="M 406.535156 226.644531 L 424.867188 226.644531 L 424.867188 244.976562 L 406.535156 244.976562 Z M 406.535156 226.644531 " fill-opacity="1" fill-rule="nonzero"/><path fill="#a509a8" d="M 424.867188 208.3125 L 443.195312 208.3125 L 443.195312 226.644531 L 424.867188 226.644531 Z M 424.867188 208.3125 " fill-opacity="1" fill-rule="nonzero"/><path fill="#a509a8" d="M 443.195312 189.976562 L 461.527344 189.976562 L 461.527344 208.3125 L 443.195312 208.3125 Z M 443.195312 189.976562 " fill-opacity="1" fill-rule="nonzero"/><path fill="#a509a8" d="M 461.527344 171.644531 L 479.855469 171.644531 L 479.855469 189.976562 L 461.527344 189.976562 Z M 461.527344 171.644531 " fill-opacity="1" fill-rule="nonzero"/><path fill="#a509a8" d="M 479.855469 153.3125 L 498.183594 153.3125 L 498.183594 171.644531 L 479.855469 171.644531 Z M 479.855469 153.3125 " fill-opacity="1" fill-rule="nonzero"/><path fill="#a509a8" d="M 443.195312 226.644531 L 461.527344 226.644531 L 461.527344 244.976562 L 443.195312 244.976562 Z M 443.195312 226.644531 " fill-opacity="1" fill-rule="nonzero"/><path fill="#a509a8" d="M 461.527344 208.3125 L 479.855469 208.3125 L 479.855469 226.644531 L 461.527344 226.644531 Z M 461.527344 208.3125 " fill-opacity="1" fill-rule="nonzero"/><path fill="#a509a8" d="M 479.855469 189.976562 L 498.183594 189.976562 L 498.183594 208.3125 L 479.855469 208.3125 Z M 479.855469 189.976562 " fill-opacity="1" fill-rule="nonzero"/><path fill="#a509a8" d="M 498.183594 171.644531 L 516.515625 171.644531 L 516.515625 189.976562 L 498.183594 189.976562 Z M 498.183594 171.644531 " fill-opacity="1" fill-rule="nonzero"/><path fill="#ffd100" d="M 883.109375 318.3125 L 883.109375 299.976562 L 864.777344 299.976562 L 864.777344 281.644531 L 809.789062 281.644531 L 809.789062 299.976562 L 828.117188 299.976562 L 828.117188 318.3125 L 846.449219 318.3125 L 846.449219 336.644531 L 901.4375 336.644531 L 901.4375 318.3125 Z M 883.109375 318.3125 " fill-opacity="1" fill-rule="nonzero"/><path fill="#ffd100" d="M 58.273438 263.3125 L 58.273438 281.644531 L 39.945312 281.644531 L 39.945312 299.976562 L 94.933594 299.976562 L 94.933594 281.644531 L 113.261719 281.644531 L 113.261719 263.3125 Z M 58.273438 263.3125 " fill-opacity="1" fill-rule="nonzero"/><g clip-path="url(#id6)"><g mask="url(#id7)"><g transform="matrix(1, 0, 0, 1, 21, 244)"><g clip-path="url(#id12)"><g clip-path="url(#id8)"><path fill="#2e1b5b" d="M 605.492188 0.976562 L 587.164062 0.976562 L 587.164062 129.3125 L 385.535156 129.3125 L 385.535156 0.976562 L 367.207031 0.976562 L 367.207031 129.3125 L 257.230469 129.3125 L 257.230469 147.644531 L 367.207031 147.644531 L 367.207031 184.3125 L 385.535156 184.3125 L 385.535156 147.644531 L 587.164062 147.644531 L 587.164062 184.3125 L 605.492188 184.3125 L 605.492188 147.644531 L 660.480469 147.644531 L 660.480469 129.3125 L 605.492188 129.3125 Z M 605.492188 0.976562 " fill-opacity="1" fill-rule="nonzero"/></g><g clip-path="url(#id9)"><path fill="#2e1b5b" d="M 0.613281 129.3125 L 92.261719 129.3125 L 92.261719 147.644531 L 0.613281 147.644531 Z M 0.613281 129.3125 " fill-opacity="1" fill-rule="nonzero"/></g><g clip-path="url(#id10)"><path fill="#2e1b5b" d="M 183.910156 0.976562 L 202.238281 0.976562 L 202.238281 55.976562 L 183.910156 55.976562 Z M 183.910156 0.976562 " fill-opacity="1" fill-rule="nonzero"/></g><path fill="#2e1b5b" d="M 202.238281 55.976562 L 220.570312 55.976562 L 220.570312 74.3125 L 202.238281 74.3125 Z M 202.238281 55.976562 " fill-opacity="1" fill-rule="nonzero"/><path fill="#2e1b5b" d="M 220.570312 19.3125 L 257.230469 19.3125 L 257.230469 37.644531 L 220.570312 37.644531 Z M 220.570312 19.3125 " fill-opacity="1" fill-rule="nonzero"/><path fill="#2e1b5b" d="M 403.867188 19.3125 L 440.527344 19.3125 L 440.527344 37.644531 L 403.867188 37.644531 Z M 403.867188 19.3125 " fill-opacity="1" fill-rule="nonzero"/><g clip-path="url(#id11)"><path fill="#2e1b5b" d="M 825.449219 129.3125 L 917.097656 129.3125 L 917.097656 147.644531 L 825.449219 147.644531 Z M 825.449219 129.3125 " fill-opacity="1" fill-rule="nonzero"/></g></g></g></g></g><g mask="url(#id13)"><g transform="matrix(1, 0, 0, 1, 58, 409)"><g clip-path="url(#id17)"><g clip-path="url(#id14)"><path fill="#2e1b5b" d="M 220.230469 0.976562 L 623.480469 0.976562 L 623.480469 19.3125 L 220.230469 19.3125 Z M 220.230469 0.976562 " fill-opacity="1" fill-rule="nonzero"/></g><g clip-path="url(#id15)"><path fill="#2e1b5b" d="M 788.449219 0.976562 L 861.765625 0.976562 L 861.765625 19.3125 L 788.449219 19.3125 Z M 788.449219 0.976562 " fill-opacity="1" fill-rule="nonzero"/></g><g clip-path="url(#id16)"><path fill="#2e1b5b" d="M 0.273438 0.976562 L 55.261719 0.976562 L 55.261719 19.3125 L 0.273438 19.3125 Z M 0.273438 0.976562 " fill-opacity="1" fill-rule="nonzero"/></g></g></g></g><path fill="#2e1b5b" d="M 278.230469 354.976562 L 626.492188 354.976562 L 626.492188 428.3125 L 278.230469 428.3125 Z M 278.230469 354.976562 " fill-opacity="0.2" fill-rule="nonzero"/><path fill="#2e1b5b" d="M 626.492188 354.976562 L 681.480469 354.976562 L 681.480469 428.3125 L 626.492188 428.3125 Z M 626.492188 354.976562 " fill-opacity="0.2" fill-rule="nonzero"/><g clip-path="url(#id18)"><g mask="url(#id19)"><g transform="matrix(1, 0, 0, 1, 21, 354)"><g clip-path="url(#id22)"><g clip-path="url(#id20)"><path fill="#2e1b5b" d="M 880.4375 19.3125 L 880.4375 0.976562 L 825.449219 0.976562 L 825.449219 74.3125 L 898.765625 74.3125 L 898.765625 55.976562 L 917.097656 55.976562 L 917.097656 19.3125 Z M 880.4375 19.3125 " fill-opacity="1" fill-rule="nonzero"/></g><g clip-path="url(#id21)"><path fill="#2e1b5b" d="M 18.945312 19.3125 L 0.613281 19.3125 L 0.613281 37.644531 L 18.945312 37.644531 L 18.945312 55.976562 L 37.273438 55.976562 L 37.273438 74.3125 L 92.261719 74.3125 L 92.261719 0.976562 L 18.945312 0.976562 Z M 18.945312 19.3125 " fill-opacity="1" fill-rule="nonzero"/></g></g></g></g></g><path fill="#2e1b5b" d="M 39.945312 391.644531 L 58.273438 391.644531 L 58.273438 409.976562 L 39.945312 409.976562 Z M 39.945312 391.644531 " fill-opacity="0.2471" fill-rule="nonzero"/><path fill="#2e1b5b" d="M 76.601562 391.644531 L 94.933594 391.644531 L 94.933594 409.976562 L 76.601562 409.976562 Z M 76.601562 391.644531 " fill-opacity="0.2471" fill-rule="nonzero"/><path fill="#2e1b5b" d="M 58.273438 409.976562 L 76.601562 409.976562 L 76.601562 428.3125 L 58.273438 428.3125 Z M 58.273438 409.976562 " fill-opacity="0.298" fill-rule="nonzero"/><path fill="#2e1b5b" d="M 39.945312 354.976562 L 58.273438 354.976562 L 58.273438 373.3125 L 39.945312 373.3125 Z M 39.945312 354.976562 " fill-opacity="0.2" fill-rule="nonzero"/><path fill="#2e1b5b" d="M 39.945312 318.3125 L 58.273438 318.3125 L 58.273438 336.644531 L 39.945312 336.644531 Z M 39.945312 318.3125 " fill-opacity="0.2" fill-rule="nonzero"/><path fill="#2e1b5b" d="M 76.601562 354.976562 L 94.933594 354.976562 L 94.933594 373.3125 L 76.601562 373.3125 Z M 76.601562 354.976562 " fill-opacity="0.2" fill-rule="nonzero"/><path fill="#2e1b5b" d="M 76.601562 318.3125 L 94.933594 318.3125 L 94.933594 336.644531 L 76.601562 336.644531 Z M 76.601562 318.3125 " fill-opacity="0.2" fill-rule="nonzero"/><path fill="#2e1b5b" d="M 113.261719 318.3125 L 131.59375 318.3125 L 131.59375 336.644531 L 113.261719 336.644531 Z M 113.261719 318.3125 " fill-opacity="0.2" fill-rule="nonzero"/><path fill="#2e1b5b" d="M 278.230469 354.976562 L 296.558594 354.976562 L 296.558594 373.3125 L 278.230469 373.3125 Z M 278.230469 354.976562 " fill-opacity="0.2" fill-rule="nonzero"/><path fill="#2e1b5b" d="M 278.230469 318.3125 L 296.558594 318.3125 L 296.558594 336.644531 L 278.230469 336.644531 Z M 278.230469 318.3125 " fill-opacity="0.2" fill-rule="nonzero"/><path fill="#2e1b5b" d="M 314.886719 354.976562 L 333.21875 354.976562 L 333.21875 373.3125 L 314.886719 373.3125 Z M 314.886719 354.976562 " fill-opacity="0.2" fill-rule="nonzero"/><path fill="#2e1b5b" d="M 314.886719 318.3125 L 333.21875 318.3125 L 333.21875 336.644531 L 314.886719 336.644531 Z M 314.886719 318.3125 " fill-opacity="0.2" fill-rule="nonzero"/><path fill="#2e1b5b" d="M 351.546875 354.976562 L 369.878906 354.976562 L 369.878906 373.3125 L 351.546875 373.3125 Z M 351.546875 354.976562 " fill-opacity="0.2" fill-rule="nonzero"/><path fill="#2e1b5b" d="M 351.546875 318.3125 L 369.878906 318.3125 L 369.878906 336.644531 L 351.546875 336.644531 Z M 351.546875 318.3125 " fill-opacity="0.2" fill-rule="nonzero"/><path fill="#2e1b5b" d="M 388.207031 354.976562 L 406.535156 354.976562 L 406.535156 373.3125 L 388.207031 373.3125 Z M 388.207031 354.976562 " fill-opacity="0.2" fill-rule="nonzero"/><path fill="#2e1b5b" d="M 388.207031 318.3125 L 406.535156 318.3125 L 406.535156 336.644531 L 388.207031 336.644531 Z M 388.207031 318.3125 " fill-opacity="0.2" fill-rule="nonzero"/><path fill="#2e1b5b" d="M 424.867188 354.976562 L 443.195312 354.976562 L 443.195312 373.3125 L 424.867188 373.3125 Z M 424.867188 354.976562 " fill-opacity="0.2" fill-rule="nonzero"/><path fill="#2e1b5b" d="M 424.867188 318.3125 L 443.195312 318.3125 L 443.195312 336.644531 L 424.867188 336.644531 Z M 424.867188 318.3125 " fill-opacity="0.2" fill-rule="nonzero"/><path fill="#2e1b5b" d="M 461.527344 354.976562 L 479.855469 354.976562 L 479.855469 373.3125 L 461.527344 373.3125 Z M 461.527344 354.976562 " fill-opacity="0.2" fill-rule="nonzero"/><path fill="#2e1b5b" d="M 461.527344 318.3125 L 479.855469 318.3125 L 479.855469 336.644531 L 461.527344 336.644531 Z M 461.527344 318.3125 " fill-opacity="0.2" fill-rule="nonzero"/><path fill="#2e1b5b" d="M 498.183594 354.976562 L 516.515625 354.976562 L 516.515625 373.3125 L 498.183594 373.3125 Z M 498.183594 354.976562 " fill-opacity="0.2" fill-rule="nonzero"/><path fill="#2e1b5b" d="M 498.183594 318.3125 L 516.515625 318.3125 L 516.515625 336.644531 L 498.183594 336.644531 Z M 498.183594 318.3125 " fill-opacity="0.2" fill-rule="nonzero"/><path fill="#2e1b5b" d="M 534.84375 354.976562 L 553.175781 354.976562 L 553.175781 373.3125 L 534.84375 373.3125 Z M 534.84375 354.976562 " fill-opacity="0.2" fill-rule="nonzero"/><path fill="#2e1b5b" d="M 534.84375 318.3125 L 553.175781 318.3125 L 553.175781 336.644531 L 534.84375 336.644531 Z M 534.84375 318.3125 " fill-opacity="0.2" fill-rule="nonzero"/><path fill="#2e1b5b" d="M 571.503906 354.976562 L 589.832031 354.976562 L 589.832031 373.3125 L 571.503906 373.3125 Z M 571.503906 354.976562 " fill-opacity="0.2" fill-rule="nonzero"/><path fill="#2e1b5b" d="M 571.503906 318.3125 L 589.832031 318.3125 L 589.832031 336.644531 L 571.503906 336.644531 Z M 571.503906 318.3125 " fill-opacity="0.2" fill-rule="nonzero"/><path fill="#2e1b5b" d="M 608.164062 354.976562 L 626.492188 354.976562 L 626.492188 373.3125 L 608.164062 373.3125 Z M 608.164062 354.976562 " fill-opacity="0.2" fill-rule="nonzero"/><path fill="#2e1b5b" d="M 608.164062 318.3125 L 626.492188 318.3125 L 626.492188 336.644531 L 608.164062 336.644531 Z M 608.164062 318.3125 " fill-opacity="0.2" fill-rule="nonzero"/><path fill="#2e1b5b" d="M 644.824219 354.976562 L 663.152344 354.976562 L 663.152344 373.3125 L 644.824219 373.3125 Z M 644.824219 354.976562 " fill-opacity="0.2" fill-rule="nonzero"/><path fill="#2e1b5b" d="M 644.824219 318.3125 L 663.152344 318.3125 L 663.152344 336.644531 L 644.824219 336.644531 Z M 644.824219 318.3125 " fill-opacity="0.2" fill-rule="nonzero"/><path fill="#2e1b5b" d="M 681.480469 318.3125 L 699.8125 318.3125 L 699.8125 336.644531 L 681.480469 336.644531 Z M 681.480469 318.3125 " fill-opacity="0.2" fill-rule="nonzero"/><path fill="#2e1b5b" d="M 94.933594 409.976562 L 113.261719 409.976562 L 113.261719 428.3125 L 94.933594 428.3125 Z M 94.933594 409.976562 " fill-opacity="0.298" fill-rule="nonzero"/><path fill="#2e1b5b" d="M 278.230469 391.644531 L 296.558594 391.644531 L 296.558594 409.976562 L 278.230469 409.976562 Z M 278.230469 391.644531 " fill-opacity="0.2471" fill-rule="nonzero"/><path fill="#2e1b5b" d="M 296.558594 409.976562 L 314.886719 409.976562 L 314.886719 428.3125 L 296.558594 428.3125 Z M 296.558594 409.976562 " fill-opacity="0.2471" fill-rule="nonzero"/><path fill="#2e1b5b" d="M 333.21875 409.976562 L 351.546875 409.976562 L 351.546875 428.3125 L 333.21875 428.3125 Z M 333.21875 409.976562 " fill-opacity="0.2471" fill-rule="nonzero"/><path fill="#2e1b5b" d="M 369.878906 409.976562 L 388.207031 409.976562 L 388.207031 428.3125 L 369.878906 428.3125 Z M 369.878906 409.976562 " fill-opacity="0.2471" fill-rule="nonzero"/><path fill="#2e1b5b" d="M 296.558594 373.3125 L 314.886719 373.3125 L 314.886719 391.644531 L 296.558594 391.644531 Z M 296.558594 373.3125 " fill-opacity="0.2471" fill-rule="nonzero"/><path fill="#2e1b5b" d="M 333.21875 373.3125 L 351.546875 373.3125 L 351.546875 391.644531 L 333.21875 391.644531 Z M 333.21875 373.3125 " fill-opacity="0.2471" fill-rule="nonzero"/><path fill="#2e1b5b" d="M 369.878906 373.3125 L 388.207031 373.3125 L 388.207031 391.644531 L 369.878906 391.644531 Z M 369.878906 373.3125 " fill-opacity="0.2471" fill-rule="nonzero"/><path fill="#2e1b5b" d="M 406.535156 409.976562 L 424.867188 409.976562 L 424.867188 428.3125 L 406.535156 428.3125 Z M 406.535156 409.976562 " fill-opacity="0.2471" fill-rule="nonzero"/><path fill="#2e1b5b" d="M 443.195312 409.976562 L 461.527344 409.976562 L 461.527344 428.3125 L 443.195312 428.3125 Z M 443.195312 409.976562 " fill-opacity="0.2471" fill-rule="nonzero"/><path fill="#2e1b5b" d="M 479.855469 409.976562 L 498.183594 409.976562 L 498.183594 428.3125 L 479.855469 428.3125 Z M 479.855469 409.976562 " fill-opacity="0.2471" fill-rule="nonzero"/><path fill="#2e1b5b" d="M 516.515625 409.976562 L 534.84375 409.976562 L 534.84375 428.3125 L 516.515625 428.3125 Z M 516.515625 409.976562 " fill-opacity="0.2471" fill-rule="nonzero"/><path fill="#2e1b5b" d="M 553.175781 409.976562 L 571.503906 409.976562 L 571.503906 428.3125 L 553.175781 428.3125 Z M 553.175781 409.976562 " fill-opacity="0.2471" fill-rule="nonzero"/><path fill="#2e1b5b" d="M 589.832031 409.976562 L 608.164062 409.976562 L 608.164062 428.3125 L 589.832031 428.3125 Z M 589.832031 409.976562 " fill-opacity="0.2471" fill-rule="nonzero"/><path fill="#2e1b5b" d="M 406.535156 373.3125 L 424.867188 373.3125 L 424.867188 391.644531 L 406.535156 391.644531 Z M 406.535156 373.3125 " fill-opacity="0.2471" fill-rule="nonzero"/><path fill="#2e1b5b" d="M 443.195312 373.3125 L 461.527344 373.3125 L 461.527344 391.644531 L 443.195312 391.644531 Z M 443.195312 373.3125 " fill-opacity="0.2471" fill-rule="nonzero"/><path fill="#2e1b5b" d="M 479.855469 373.3125 L 498.183594 373.3125 L 498.183594 391.644531 L 479.855469 391.644531 Z M 479.855469 373.3125 " fill-opacity="0.2471" fill-rule="nonzero"/><path fill="#2e1b5b" d="M 516.515625 373.3125 L 534.84375 373.3125 L 534.84375 391.644531 L 516.515625 391.644531 Z M 516.515625 373.3125 " fill-opacity="0.2471" fill-rule="nonzero"/><path fill="#2e1b5b" d="M 553.175781 373.3125 L 571.503906 373.3125 L 571.503906 391.644531 L 553.175781 391.644531 Z M 553.175781 373.3125 " fill-opacity="0.2471" fill-rule="nonzero"/><path fill="#2e1b5b" d="M 589.832031 373.3125 L 608.164062 373.3125 L 608.164062 391.644531 L 589.832031 391.644531 Z M 589.832031 373.3125 " fill-opacity="0.2471" fill-rule="nonzero"/><path fill="#2e1b5b" d="M 626.492188 409.976562 L 644.824219 409.976562 L 644.824219 428.3125 L 626.492188 428.3125 Z M 626.492188 409.976562 " fill-opacity="0.2471" fill-rule="nonzero"/><path fill="#2e1b5b" d="M 663.152344 409.976562 L 681.480469 409.976562 L 681.480469 428.3125 L 663.152344 428.3125 Z M 663.152344 409.976562 " fill-opacity="0.2471" fill-rule="nonzero"/><path fill="#2e1b5b" d="M 846.449219 409.976562 L 864.777344 409.976562 L 864.777344 428.3125 L 846.449219 428.3125 Z M 846.449219 409.976562 " fill-opacity="0.2471" fill-rule="nonzero"/><path fill="#2e1b5b" d="M 883.109375 409.976562 L 901.4375 409.976562 L 901.4375 428.3125 L 883.109375 428.3125 Z M 883.109375 409.976562 " fill-opacity="0.2471" fill-rule="nonzero"/><path fill="#2e1b5b" d="M 314.886719 391.644531 L 333.21875 391.644531 L 333.21875 409.976562 L 314.886719 409.976562 Z M 314.886719 391.644531 " fill-opacity="0.2471" fill-rule="nonzero"/><path fill="#2e1b5b" d="M 351.546875 391.644531 L 369.878906 391.644531 L 369.878906 409.976562 L 351.546875 409.976562 Z M 351.546875 391.644531 " fill-opacity="0.2471" fill-rule="nonzero"/><path fill="#2e1b5b" d="M 424.867188 391.644531 L 443.195312 391.644531 L 443.195312 409.976562 L 424.867188 409.976562 Z M 424.867188 391.644531 " fill-opacity="0.2471" fill-rule="nonzero"/><path fill="#2e1b5b" d="M 461.527344 391.644531 L 479.855469 391.644531 L 479.855469 409.976562 L 461.527344 409.976562 Z M 461.527344 391.644531 " fill-opacity="0.2471" fill-rule="nonzero"/><path fill="#2e1b5b" d="M 498.183594 391.644531 L 516.515625 391.644531 L 516.515625 409.976562 L 498.183594 409.976562 Z M 498.183594 391.644531 " fill-opacity="0.2471" fill-rule="nonzero"/><path fill="#2e1b5b" d="M 534.84375 391.644531 L 553.175781 391.644531 L 553.175781 409.976562 L 534.84375 409.976562 Z M 534.84375 391.644531 " fill-opacity="0.2471" fill-rule="nonzero"/><path fill="#2e1b5b" d="M 571.503906 391.644531 L 589.832031 391.644531 L 589.832031 409.976562 L 571.503906 409.976562 Z M 571.503906 391.644531 " fill-opacity="0.2471" fill-rule="nonzero"/><path fill="#2e1b5b" d="M 864.777344 391.644531 L 883.109375 391.644531 L 883.109375 409.976562 L 864.777344 409.976562 Z M 864.777344 391.644531 " fill-opacity="0.2471" fill-rule="nonzero"/><path fill="#2e1b5b" d="M 901.4375 391.644531 L 919.765625 391.644531 L 919.765625 409.976562 L 901.4375 409.976562 Z M 901.4375 391.644531 " fill-opacity="0.2471" fill-rule="nonzero"/><path fill="#2e1b5b" d="M 644.824219 391.644531 L 663.152344 391.644531 L 663.152344 409.976562 L 644.824219 409.976562 Z M 644.824219 391.644531 " fill-opacity="0.2471" fill-rule="nonzero"/><path fill="#2e1b5b" d="M 406.535156 153.3125 L 516.515625 153.3125 L 516.515625 171.644531 L 406.535156 171.644531 Z M 406.535156 153.3125 " fill-opacity="0.698" fill-rule="nonzero"/><path fill="#2e1b5b" d="M 259.898438 153.3125 L 388.207031 153.3125 L 388.207031 171.644531 L 259.898438 171.644531 Z M 259.898438 153.3125 " fill-opacity="0.698" fill-rule="nonzero"/><path fill="#2e1b5b" d="M 241.570312 171.644531 L 388.207031 171.644531 L 388.207031 189.976562 L 241.570312 189.976562 Z M 241.570312 171.644531 " fill-opacity="0.498" fill-rule="nonzero"/><path fill="#2e1b5b" d="M 406.535156 171.644531 L 534.84375 171.644531 L 534.84375 189.976562 L 406.535156 189.976562 Z M 406.535156 171.644531 " fill-opacity="0.498" fill-rule="nonzero"/></svg>