<svg xmlns="http://www.w3.org/2000/svg" xmlns:xlink="http://www.w3.org/1999/xlink" width="1000" zoomAndPan="magnify" viewBox="0 0 750 749.999995" height="1000" preserveAspectRatio="xMidYMid meet" version="1.0"><defs><clipPath id="id1"><path d="M 22 22 L 728.480469 22 L 728.480469 728.625 L 22 728.625 Z M 22 22 " clip-rule="nonzero"/></clipPath></defs><path fill="#0a3542" d="M 321.855469 423 C 328.578125 423 331.542969 425.933594 331.597656 432.640625 C 331.699219 444.734375 331.734375 456.828125 331.5 468.917969 C 331.472656 470.429688 330.023438 472.507812 328.640625 473.308594 C 318.578125 479.152344 313.707031 489.71875 316.425781 500.492188 C 319.023438 510.773438 328.546875 518.304688 339.199219 518.480469 C 349.902344 518.660156 359.929688 511 362.53125 500.636719 C 365.273438 489.734375 360.652344 479.082031 350.425781 473.5625 C 348.109375 472.316406 347.453125 470.976562 347.472656 468.53125 C 347.578125 457.058594 347.535156 445.585938 347.515625 434.113281 C 347.488281 416.6875 337.902344 407.128906 320.441406 407.121094 C 282.425781 407.113281 244.410156 407.113281 206.394531 407.121094 L 206.394531 422.992188 C 244.882812 422.980469 283.367188 422.980469 321.855469 423 Z M 321.855469 423 " fill-opacity="1" fill-rule="nonzero"/><path fill="#0a3542" d="M 425.839844 368.734375 C 422.394531 358.632812 415.4375 352.609375 404.777344 351.8125 C 394.535156 351.042969 386.710938 355.605469 382.003906 364.726562 C 380.453125 367.730469 378.304688 367.449219 375.886719 367.449219 C 319.382812 367.449219 262.886719 367.449219 206.394531 367.449219 L 206.394531 383.402344 C 263.179688 383.394531 319.964844 383.367188 376.753906 383.324219 C 379.695312 383.324219 380.984375 384.46875 382.359375 386.902344 C 387.132812 395.328125 394.621094 399.558594 404.273438 399.023438 C 414.320312 398.464844 421.324219 393.179688 425.179688 383.828125 C 425.699219 382.570312 426.25 381.332031 426.796875 380.074219 L 426.796875 370.773438 C 426.472656 370.09375 426.082031 369.449219 425.839844 368.734375 Z M 425.839844 368.734375 " fill-opacity="1" fill-rule="nonzero"/><path fill="#0a3542" d="M 321.308594 343.710938 C 337.535156 343.710938 347.433594 333.902344 347.507812 317.742188 C 347.5625 306.269531 347.617188 294.796875 347.457031 283.324219 C 347.414062 280.210938 348.179688 278.417969 351.15625 276.835938 C 359.566406 272.371094 364.332031 262.835938 363.203125 253.957031 C 361.695312 242.023438 353.011719 233.578125 341.117188 232.480469 C 330.449219 231.496094 319.988281 238.78125 316.761719 249.445312 C 313.429688 260.433594 318.113281 271.683594 328.691406 277.355469 C 330.972656 278.578125 331.714844 279.867188 331.683594 282.355469 C 331.558594 293.824219 331.648438 305.300781 331.621094 316.773438 C 331.601562 325.324219 329.058594 327.851562 320.511719 327.855469 C 282.472656 327.863281 244.433594 327.863281 206.394531 327.855469 L 206.394531 343.707031 C 244.699219 343.714844 283.003906 343.714844 321.308594 343.710938 Z M 321.308594 343.710938 " fill-opacity="1" fill-rule="nonzero"/><path fill="#0a3542" d="M 375.519531 165.992188 L 375.207031 165.992188 C 319.78125 166.074219 267.488281 187.722656 227.886719 226.941406 L 227.546875 227.277344 C 187.816406 266.820312 165.839844 319.179688 165.671875 374.707031 C 165.5 430.234375 187.136719 482.722656 226.601562 522.546875 C 265.96875 562.28125 318.324219 584.414062 374.027344 584.871094 L 374.050781 584.871094 C 374.625 584.871094 375.199219 584.871094 375.777344 584.871094 C 430.972656 584.871094 482.917969 563.484375 522.0625 524.652344 C 562.300781 484.734375 584.496094 431.671875 584.539062 375.269531 C 584.578125 319.195312 562.691406 266.519531 522.90625 226.945312 C 483.382812 187.640625 431.039062 165.992188 375.519531 165.992188 Z M 493.386719 495.730469 C 461.917969 526.945312 420.148438 544.136719 375.773438 544.136719 L 374.351562 544.136719 C 329.480469 543.765625 287.273438 525.917969 255.523438 493.867188 C 223.703125 461.757812 206.253906 419.484375 206.394531 374.835938 C 206.53125 330.289062 224.164062 288.234375 256.046875 256.386719 L 256.269531 256.164062 C 288.238281 224.359375 330.496094 206.804688 375.265625 206.742188 L 375.515625 206.742188 C 420.207031 206.742188 462.347656 224.179688 494.183594 255.847656 C 526.214844 287.710938 543.835938 330.125 543.804688 375.253906 C 543.773438 420.722656 525.863281 463.507812 493.378906 495.734375 Z M 493.386719 495.730469 " fill-opacity="1" fill-rule="nonzero"/><g clip-path="url(#id1)"><path fill="#0a3542" d="M 724.210938 364.210938 C 722.785156 362.441406 721.074219 361 719.085938 359.894531 C 717.097656 358.789062 714.976562 358.097656 712.71875 357.820312 C 677.953125 353.488281 653.71875 335.929688 640.683594 305.632812 C 625.988281 271.476562 635.25 233.039062 664.289062 207.699219 L 664.609375 207.417969 C 665.453125 206.683594 666.3125 205.933594 667.164062 205.1875 C 668.011719 204.445312 668.777344 203.628906 669.46875 202.738281 C 670.15625 201.847656 670.753906 200.902344 671.261719 199.898438 C 671.769531 198.894531 672.175781 197.851562 672.484375 196.765625 C 672.792969 195.683594 672.992188 194.582031 673.089844 193.460938 C 673.1875 192.339844 673.175781 191.21875 673.054688 190.101562 C 672.9375 188.980469 672.710938 187.882812 672.382812 186.808594 C 672.050781 185.730469 671.621094 184.695312 671.09375 183.703125 C 670.566406 182.710938 669.949219 181.773438 669.242188 180.902344 C 668.335938 179.785156 667.421875 178.660156 666.53125 177.5625 L 625.304688 126.882812 C 624.59375 126.007812 623.804688 125.210938 622.941406 124.488281 C 622.078125 123.765625 621.152344 123.132812 620.167969 122.589844 C 619.183594 122.042969 618.15625 121.597656 617.082031 121.25 C 616.011719 120.90625 614.917969 120.664062 613.800781 120.527344 C 612.683594 120.390625 611.5625 120.359375 610.441406 120.441406 C 609.316406 120.519531 608.210938 120.703125 607.125 120.996094 C 606.035156 121.285156 604.988281 121.679688 603.972656 122.171875 C 602.960938 122.664062 602.007812 123.25 601.105469 123.925781 C 583.429688 137.226562 564.191406 144.375 545.464844 144.597656 C 545.160156 144.597656 544.851562 144.597656 544.542969 144.597656 C 524.847656 144.597656 505.625 137.035156 488.902344 122.691406 C 467.425781 104.269531 458.261719 79.941406 460.882812 48.296875 C 460.929688 47.730469 460.949219 47.164062 460.941406 46.59375 C 460.933594 46.027344 460.898438 45.460938 460.835938 44.894531 C 460.773438 44.332031 460.683594 43.769531 460.566406 43.214844 C 460.449219 42.65625 460.304688 42.109375 460.132812 41.566406 C 459.964844 41.023438 459.765625 40.492188 459.542969 39.96875 C 459.324219 39.445312 459.074219 38.933594 458.804688 38.433594 C 458.53125 37.9375 458.238281 37.453125 457.917969 36.980469 C 457.601562 36.511719 457.257812 36.054688 456.898438 35.617188 C 456.535156 35.179688 456.152344 34.761719 455.746094 34.363281 C 455.34375 33.960938 454.921875 33.582031 454.484375 33.222656 C 454.042969 32.863281 453.585938 32.523438 453.113281 32.210938 C 452.640625 31.894531 452.152344 31.601562 451.652344 31.335938 C 451.152344 31.066406 450.636719 30.824219 450.113281 30.605469 C 449.589844 30.386719 449.054688 30.195312 448.511719 30.03125 C 447.96875 29.863281 447.417969 29.722656 446.863281 29.609375 C 446.304688 29.496094 445.746094 29.410156 445.179688 29.351562 C 422.339844 26.984375 399.324219 24.628906 376.765625 22.347656 L 376.53125 22.324219 C 375.96875 22.269531 375.40625 22.242188 374.84375 22.238281 C 374.277344 22.238281 373.714844 22.261719 373.152344 22.3125 C 372.589844 22.367188 372.03125 22.445312 371.476562 22.550781 C 370.925781 22.65625 370.375 22.789062 369.835938 22.949219 C 369.292969 23.109375 368.761719 23.292969 368.234375 23.503906 C 367.710938 23.710938 367.199219 23.949219 366.699219 24.207031 C 366.199219 24.464844 365.710938 24.75 365.234375 25.054688 C 364.761719 25.363281 364.304688 25.691406 363.863281 26.042969 C 363.417969 26.390625 362.996094 26.761719 362.589844 27.15625 C 362.179688 27.546875 361.792969 27.957031 361.425781 28.386719 C 361.058594 28.816406 360.714844 29.261719 360.390625 29.722656 C 360.066406 30.183594 359.765625 30.660156 359.488281 31.152344 C 359.207031 31.644531 358.953125 32.148438 358.722656 32.664062 C 358.496094 33.179688 358.289062 33.703125 358.109375 34.238281 C 357.929688 34.773438 357.777344 35.316406 357.652344 35.867188 C 357.523438 36.417969 357.421875 36.972656 357.351562 37.53125 L 357.351562 37.558594 L 357.335938 37.660156 C 352.21875 78.402344 327.605469 106.308594 289.832031 114.21875 C 283.382812 115.597656 276.863281 116.304688 270.269531 116.335938 C 245.203125 116.335938 223.25 105.359375 205.011719 83.710938 C 204.644531 83.273438 204.257812 82.859375 203.851562 82.460938 C 203.445312 82.0625 203.019531 81.6875 202.574219 81.328125 C 202.132812 80.972656 201.671875 80.640625 201.195312 80.328125 C 200.71875 80.015625 200.230469 79.730469 199.726562 79.464844 C 199.222656 79.199219 198.707031 78.960938 198.179688 78.746094 C 197.652344 78.535156 197.113281 78.347656 196.570312 78.183594 C 196.023438 78.023438 195.472656 77.886719 194.914062 77.78125 C 194.355469 77.671875 193.792969 77.589844 193.226562 77.539062 C 192.660156 77.484375 192.089844 77.457031 191.523438 77.460938 C 190.953125 77.460938 190.386719 77.492188 189.820312 77.546875 C 189.253906 77.605469 188.691406 77.6875 188.132812 77.800781 C 187.574219 77.910156 187.023438 78.050781 186.480469 78.214844 C 185.933594 78.378906 185.398438 78.570312 184.875 78.785156 C 184.347656 79.003906 183.832031 79.246094 183.332031 79.511719 C 182.828125 79.78125 182.339844 80.070312 181.867188 80.382812 C 181.390625 80.699219 180.933594 81.035156 180.492188 81.394531 C 173.808594 86.824219 167.089844 92.324219 160.585938 97.644531 L 160.4375 97.769531 C 149.398438 106.804688 137.992188 116.140625 126.574219 125.289062 C 126.125 125.652344 125.695312 126.03125 125.289062 126.433594 C 124.878906 126.835938 124.488281 127.257812 124.117188 127.695312 C 123.75 128.136719 123.402344 128.59375 123.078125 129.066406 C 122.753906 129.539062 122.453125 130.027344 122.175781 130.53125 C 121.902344 131.035156 121.648438 131.550781 121.421875 132.078125 C 121.195312 132.605469 120.996094 133.144531 120.824219 133.691406 C 120.648438 134.238281 120.503906 134.792969 120.382812 135.355469 C 120.265625 135.917969 120.171875 136.484375 120.109375 137.054688 C 120.042969 137.625 120.007812 138.195312 120 138.769531 C 119.992188 139.34375 120.011719 139.917969 120.058594 140.492188 C 120.109375 141.0625 120.183594 141.632812 120.285156 142.195312 C 120.390625 142.761719 120.519531 143.320312 120.679688 143.871094 C 120.835938 144.425781 121.023438 144.96875 121.234375 145.5 C 121.445312 146.035156 121.679688 146.558594 121.941406 147.070312 C 122.203125 147.578125 122.492188 148.078125 122.800781 148.558594 C 123.113281 149.042969 123.445312 149.507812 123.804688 149.957031 C 128.023438 155.269531 132.382812 161.128906 135.675781 167.96875 C 148.71875 195.042969 146.632812 226.230469 130.097656 251.417969 C 114.210938 275.617188 87.507812 290.070312 58.667969 290.070312 C 57.464844 290.070312 56.246094 290.042969 55.046875 289.996094 C 53.246094 289.910156 51.457031 289.722656 49.679688 289.433594 C 49.101562 289.347656 48.523438 289.285156 47.9375 289.253906 C 47.355469 289.222656 46.773438 289.21875 46.191406 289.246094 C 45.609375 289.269531 45.027344 289.328125 44.449219 289.410156 C 43.871094 289.496094 43.300781 289.605469 42.734375 289.75 C 42.167969 289.890625 41.609375 290.058594 41.0625 290.253906 C 40.511719 290.453125 39.972656 290.675781 39.445312 290.925781 C 38.917969 291.175781 38.40625 291.449219 37.90625 291.753906 C 37.40625 292.054688 36.921875 292.378906 36.457031 292.730469 C 35.988281 293.078125 35.539062 293.449219 35.109375 293.84375 C 34.679688 294.238281 34.269531 294.652344 33.878906 295.089844 C 33.492188 295.523438 33.125 295.976562 32.78125 296.449219 C 32.4375 296.921875 32.117188 297.40625 31.824219 297.910156 C 31.527344 298.414062 31.257812 298.929688 31.011719 299.460938 C 30.769531 299.992188 30.550781 300.53125 30.363281 301.085938 C 30.171875 301.636719 30.011719 302.195312 29.875 302.765625 C 29.742188 303.332031 29.636719 303.90625 29.558594 304.484375 C 26.363281 328.425781 24.039062 353.707031 22.160156 374.019531 C 22.109375 374.582031 22.082031 375.144531 22.085938 375.710938 C 22.089844 376.277344 22.117188 376.839844 22.175781 377.402344 C 22.234375 377.964844 22.316406 378.523438 22.425781 379.078125 C 22.539062 379.632812 22.675781 380.183594 22.839844 380.722656 C 23.003906 381.265625 23.191406 381.796875 23.40625 382.320312 C 23.621094 382.84375 23.859375 383.355469 24.125 383.855469 C 24.390625 384.355469 24.675781 384.839844 24.988281 385.3125 C 25.300781 385.785156 25.632812 386.242188 25.988281 386.679688 C 26.34375 387.121094 26.71875 387.542969 27.113281 387.945312 C 27.511719 388.351562 27.925781 388.734375 28.359375 389.097656 C 28.789062 389.460938 29.242188 389.804688 29.707031 390.125 C 30.171875 390.445312 30.652344 390.742188 31.148438 391.015625 C 31.640625 391.289062 32.148438 391.539062 32.667969 391.765625 C 33.183594 391.988281 33.714844 392.1875 34.25 392.363281 C 34.789062 392.535156 35.335938 392.683594 35.886719 392.804688 C 36.4375 392.925781 36.996094 393.023438 37.554688 393.089844 C 50.859375 394.691406 62.722656 398.367188 72.824219 403.996094 C 85.996094 411.339844 96.671875 422.21875 104.535156 436.328125 C 124.933594 472.9375 117.398438 516.007812 85.773438 543.5 L 85.5625 543.679688 C 84.71875 544.410156 83.859375 545.160156 83.011719 545.902344 C 82.160156 546.644531 81.390625 547.460938 80.695312 548.347656 C 80.003906 549.238281 79.402344 550.1875 78.890625 551.191406 C 78.382812 552.199219 77.972656 553.242188 77.660156 554.328125 C 77.351562 555.410156 77.148438 556.515625 77.050781 557.640625 C 76.953125 558.761719 76.964844 559.886719 77.085938 561.007812 C 77.203125 562.128906 77.429688 563.230469 77.757812 564.308594 C 78.089844 565.386719 78.519531 566.421875 79.046875 567.417969 C 79.578125 568.414062 80.199219 569.351562 80.90625 570.226562 C 81.78125 571.304688 82.667969 572.390625 83.523438 573.441406 L 103 597.390625 L 103.019531 597.414062 C 105.375 600.296875 107.808594 603.257812 110.160156 606.121094 L 110.730469 606.816406 C 115.410156 612.519531 120.246094 618.394531 125.007812 624.308594 C 125.363281 624.753906 125.742188 625.175781 126.140625 625.585938 C 126.539062 625.992188 126.953125 626.378906 127.390625 626.742188 C 127.824219 627.109375 128.277344 627.453125 128.746094 627.777344 C 129.214844 628.097656 129.699219 628.394531 130.199219 628.671875 C 130.695312 628.945312 131.207031 629.195312 131.730469 629.421875 C 132.25 629.648438 132.785156 629.847656 133.324219 630.023438 C 133.867188 630.195312 134.417969 630.34375 134.972656 630.464844 C 135.527344 630.582031 136.089844 630.675781 136.652344 630.742188 C 137.21875 630.808594 137.785156 630.847656 138.355469 630.859375 C 138.925781 630.871094 139.492188 630.851562 140.058594 630.808594 C 140.625 630.765625 141.191406 630.691406 141.75 630.59375 C 142.3125 630.496094 142.867188 630.367188 143.414062 630.214844 C 143.960938 630.0625 144.5 629.882812 145.03125 629.679688 C 145.5625 629.472656 146.082031 629.242188 146.589844 628.988281 C 147.097656 628.730469 147.59375 628.453125 148.074219 628.148438 C 148.554688 627.84375 149.019531 627.515625 149.46875 627.167969 C 156.09375 622.027344 162.679688 617.117188 170.390625 613.632812 C 195.933594 602.078125 225.617188 604.367188 249.800781 619.765625 C 274.347656 635.402344 289.21875 661.816406 289.578125 690.429688 C 289.609375 694.449219 289.441406 698.464844 289.066406 702.46875 C 289.019531 703.039062 288.996094 703.613281 289.003906 704.183594 C 289.007812 704.757812 289.042969 705.332031 289.105469 705.902344 C 289.167969 706.472656 289.257812 707.039062 289.375 707.597656 C 289.492188 708.160156 289.636719 708.714844 289.808594 709.261719 C 289.980469 709.808594 290.179688 710.347656 290.402344 710.875 C 290.628906 711.402344 290.878906 711.917969 291.152344 712.421875 C 291.425781 712.925781 291.726562 713.414062 292.046875 713.890625 C 292.371094 714.363281 292.714844 714.820312 293.082031 715.261719 C 293.449219 715.703125 293.835938 716.125 294.246094 716.527344 C 294.652344 716.929688 295.078125 717.3125 295.523438 717.675781 C 295.96875 718.035156 296.433594 718.375 296.910156 718.691406 C 297.390625 719.007812 297.882812 719.296875 298.390625 719.566406 C 298.894531 719.835938 299.414062 720.078125 299.945312 720.292969 C 300.476562 720.511719 301.015625 720.703125 301.566406 720.867188 C 302.117188 721.03125 302.671875 721.167969 303.234375 721.277344 C 303.796875 721.390625 304.363281 721.472656 304.933594 721.527344 C 318.777344 722.828125 332.710938 724.292969 346.183594 725.714844 L 346.359375 725.734375 C 355.171875 726.664062 364.285156 727.625 373.402344 728.539062 C 373.996094 728.597656 374.59375 728.628906 375.183594 728.628906 C 376.238281 728.625 377.285156 728.53125 378.324219 728.339844 C 379.363281 728.148438 380.378906 727.867188 381.367188 727.492188 C 382.355469 727.121094 383.300781 726.660156 384.207031 726.117188 C 385.109375 725.574219 385.960938 724.953125 386.753906 724.253906 C 387.546875 723.558594 388.273438 722.796875 388.929688 721.96875 C 389.585938 721.140625 390.164062 720.261719 390.660156 719.328125 C 391.15625 718.394531 391.566406 717.425781 391.890625 716.421875 C 392.214844 715.414062 392.445312 714.390625 392.582031 713.339844 C 396.949219 680.210938 412.160156 657.621094 439.085938 644.253906 C 457.46875 635.125 476.898438 632.320312 495.28125 636.164062 C 513.660156 640.007812 530.425781 650.359375 543.746094 666.121094 L 545.066406 667.683594 C 545.433594 668.113281 545.824219 668.527344 546.230469 668.925781 C 546.636719 669.320312 547.0625 669.695312 547.507812 670.046875 C 547.949219 670.402344 548.410156 670.734375 548.886719 671.042969 C 549.359375 671.351562 549.851562 671.636719 550.355469 671.902344 C 550.855469 672.164062 551.371094 672.398438 551.898438 672.613281 C 552.425781 672.824219 552.960938 673.011719 553.503906 673.171875 C 554.046875 673.332031 554.597656 673.464844 555.15625 673.570312 C 555.714844 673.679688 556.273438 673.757812 556.839844 673.8125 C 557.40625 673.863281 557.972656 673.890625 558.539062 673.886719 C 559.105469 673.882812 559.671875 673.855469 560.238281 673.796875 C 560.800781 673.742188 561.363281 673.65625 561.917969 673.542969 C 562.476562 673.433594 563.023438 673.296875 563.566406 673.128906 C 564.109375 672.964844 564.644531 672.777344 565.167969 672.558594 C 565.695312 672.34375 566.207031 672.101562 566.707031 671.835938 C 567.210938 671.570312 567.695312 671.28125 568.167969 670.964844 C 568.644531 670.652344 569.101562 670.316406 569.539062 669.960938 C 570.125 669.488281 570.671875 669.042969 571.144531 668.652344 C 576.351562 664.414062 581.558594 660.183594 586.765625 655.960938 L 587.121094 655.667969 C 599.074219 645.972656 611.429688 635.941406 623.621094 625.914062 C 624.074219 625.542969 624.503906 625.152344 624.914062 624.738281 C 625.324219 624.324219 625.714844 623.890625 626.082031 623.441406 C 626.449219 622.988281 626.796875 622.519531 627.117188 622.035156 C 627.4375 621.546875 627.734375 621.046875 628.007812 620.53125 C 628.277344 620.015625 628.523438 619.488281 628.742188 618.949219 C 628.964844 618.410156 629.15625 617.859375 629.320312 617.300781 C 629.484375 616.742188 629.621094 616.175781 629.730469 615.601562 C 629.835938 615.03125 629.917969 614.453125 629.96875 613.871094 C 630.019531 613.292969 630.042969 612.710938 630.035156 612.128906 C 630.027344 611.542969 629.992188 610.964844 629.929688 610.382812 C 629.863281 609.804688 629.769531 609.230469 629.648438 608.660156 C 629.527344 608.089844 629.378906 607.527344 629.199219 606.972656 C 629.023438 606.417969 628.816406 605.875 628.585938 605.339844 C 628.355469 604.804688 628.097656 604.28125 627.8125 603.773438 C 627.527344 603.265625 627.222656 602.769531 626.886719 602.292969 C 626.554688 601.8125 626.199219 601.351562 625.820312 600.910156 C 603.210938 574.433594 599.847656 539.507812 616.816406 507.480469 C 625.246094 491.566406 638.179688 478.980469 654.21875 471.101562 C 668.726562 463.976562 685.734375 460.785156 703.398438 461.886719 C 703.960938 461.921875 704.523438 461.929688 705.085938 461.910156 C 705.648438 461.890625 706.207031 461.84375 706.765625 461.769531 C 707.324219 461.699219 707.878906 461.597656 708.429688 461.472656 C 708.976562 461.347656 709.519531 461.195312 710.054688 461.015625 C 710.585938 460.835938 711.113281 460.632812 711.628906 460.402344 C 712.140625 460.175781 712.644531 459.921875 713.136719 459.644531 C 713.625 459.367188 714.101562 459.066406 714.5625 458.746094 C 715.023438 458.421875 715.46875 458.078125 715.898438 457.710938 C 716.328125 457.34375 716.738281 456.960938 717.128906 456.554688 C 717.519531 456.148438 717.890625 455.726562 718.242188 455.285156 C 718.59375 454.84375 718.921875 454.386719 719.226562 453.914062 C 719.535156 453.441406 719.820312 452.957031 720.078125 452.457031 C 720.339844 451.957031 720.574219 451.445312 720.785156 450.921875 C 720.996094 450.398438 721.183594 449.867188 721.34375 449.328125 C 721.503906 448.789062 721.636719 448.242188 721.742188 447.6875 C 721.851562 447.132812 721.929688 446.578125 721.984375 446.015625 C 723.671875 428.445312 725.179688 410.59375 726.636719 393.332031 L 726.648438 393.171875 C 727.113281 387.710938 727.574219 382.246094 728.039062 376.773438 C 728.242188 374.511719 728.011719 372.292969 727.347656 370.121094 C 726.683594 367.949219 725.640625 365.976562 724.210938 364.210938 Z M 694.789062 390.464844 L 694.777344 390.625 C 693.691406 403.472656 692.578125 416.648438 691.394531 429.753906 C 673.175781 430.445312 655.675781 434.726562 640.132812 442.363281 C 618.003906 453.246094 600.171875 470.574219 588.570312 492.484375 C 577.210938 513.925781 572.402344 537.191406 574.660156 559.746094 C 576.441406 577.582031 582.613281 594.6875 592.664062 609.917969 C 584.046875 616.957031 575.414062 623.964844 566.988281 630.804688 L 566.632812 631.09375 L 559.9375 636.527344 C 543.40625 620.234375 523.523438 609.347656 501.828125 604.824219 C 476.355469 599.507812 449.746094 603.21875 424.875 615.574219 C 406.640625 624.628906 391.9375 637.257812 381.164062 653.113281 C 372.878906 665.304688 366.90625 679.460938 363.332031 695.328125 C 358.746094 694.851562 354.195312 694.371094 349.722656 693.902344 L 349.539062 693.882812 C 340.378906 692.921875 331.019531 691.933594 321.582031 690.988281 C 321.582031 690.667969 321.582031 690.351562 321.582031 690.03125 C 321.089844 650.585938 300.683594 614.226562 266.996094 592.777344 C 233.679688 571.5625 192.648438 568.460938 157.234375 584.476562 C 151.308594 587.148438 146.058594 590.273438 141.238281 593.539062 C 139.296875 591.164062 137.375 588.820312 135.46875 586.507812 L 134.894531 585.808594 C 132.558594 582.960938 130.144531 580.023438 127.8125 577.171875 L 114.308594 560.566406 C 121.546875 553.179688 127.734375 544.996094 132.871094 536.015625 C 136.167969 530.261719 138.941406 524.265625 141.191406 518.027344 C 143.445312 511.789062 145.144531 505.402344 146.289062 498.871094 C 147.429688 492.335938 148 485.753906 148 479.121094 C 148 472.488281 147.425781 465.90625 146.28125 459.375 C 143.96875 445.992188 139.320312 432.996094 132.488281 420.738281 C 121.6875 401.359375 106.851562 386.316406 88.410156 376.03125 C 78.402344 370.453125 67.296875 366.3125 55.265625 363.65625 C 56.496094 350.589844 57.917969 336.253906 59.601562 322.058594 C 69.101562 321.992188 78.457031 320.796875 87.671875 318.476562 C 97.035156 316.117188 105.96875 312.640625 114.46875 308.050781 C 122.964844 303.457031 130.769531 297.894531 137.882812 291.355469 C 145.121094 284.683594 151.441406 277.226562 156.835938 268.988281 C 167.988281 252 174.585938 232.472656 175.917969 212.523438 C 177.25 192.574219 173.296875 172.347656 164.492188 154.082031 C 162.394531 149.753906 160.011719 145.59375 157.339844 141.59375 C 165.238281 135.195312 173.050781 128.796875 180.691406 122.546875 L 180.847656 122.417969 C 183.929688 119.898438 187.0625 117.332031 190.214844 114.761719 C 199.757812 124.074219 210.171875 131.542969 221.300781 137.035156 C 236.507812 144.546875 252.992188 148.355469 270.261719 148.351562 C 279.066406 148.316406 287.773438 147.382812 296.382812 145.546875 C 321.464844 140.296875 343.285156 127.878906 359.476562 109.636719 C 367.488281 100.605469 374.089844 90.222656 379.074219 78.765625 C 382.328125 71.257812 384.855469 63.511719 386.652344 55.527344 C 400.519531 56.9375 414.511719 58.367188 428.492188 59.800781 C 428.648438 75.03125 431.214844 89.246094 436.164062 102.210938 C 442.714844 119.367188 453.457031 134.4375 468.097656 146.992188 C 490.707031 166.378906 517.105469 176.601562 544.539062 176.597656 C 544.980469 176.597656 545.429688 176.597656 545.863281 176.597656 C 567.28125 176.339844 588.828125 169.730469 608.863281 157.363281 L 635.878906 190.578125 C 620.496094 206.292969 609.851562 225.3125 604.886719 246.09375 C 599.132812 270.1875 601.359375 295.15625 611.316406 318.296875 C 618.824219 335.753906 629.496094 350.449219 643.039062 362 C 657.511719 374.34375 674.972656 382.804688 695.078125 387.238281 Z M 694.789062 390.464844 " fill-opacity="1" fill-rule="nonzero"/></g></svg>