<svg xmlns="http://www.w3.org/2000/svg" xmlns:xlink="http://www.w3.org/1999/xlink" width="1000" zoomAndPan="magnify" viewBox="0 0 750 749.999995" height="1000" preserveAspectRatio="xMidYMid meet" version="1.0"><defs><clipPath id="id1"><path d="M 15.859375 7.164062 L 734.359375 7.164062 L 734.359375 742.914062 L 15.859375 742.914062 Z M 15.859375 7.164062 " clip-rule="nonzero"/></clipPath><clipPath id="id2"><path d="M 383.871094 625.621094 C 384.554688 625.621094 385.230469 625.5 385.882812 625.257812 C 465.15625 596.15625 519 559.109375 555.320312 508.6875 C 573.175781 483.902344 582.609375 454.566406 582.609375 423.84375 L 582.609375 203.773438 C 582.609375 188.691406 574.652344 174.601562 561.84375 167.003906 C 512.914062 137.96875 459.320312 117.054688 402.566406 104.839844 C 390.160156 102.164062 377.589844 102.167969 365.1875 104.839844 C 308.417969 117.058594 254.832031 137.976562 205.910156 167.003906 C 193.097656 174.601562 185.136719 188.691406 185.136719 203.773438 L 185.136719 423.84375 C 185.136719 454.570312 194.574219 483.90625 212.429688 508.6875 C 248.75 559.109375 302.589844 596.15625 381.859375 625.257812 C 382.507812 625.5 383.1875 625.621094 383.871094 625.621094 Z M 221.90625 501.863281 C 205.492188 479.082031 196.816406 452.105469 196.816406 423.84375 L 196.816406 203.773438 C 196.816406 192.789062 202.582031 182.546875 211.867188 177.039062 C 259.695312 148.65625 312.109375 128.203125 367.640625 116.25 C 373.03125 115.09375 378.457031 114.515625 383.875 114.515625 C 389.296875 114.515625 394.714844 115.09375 400.101562 116.25 C 455.625 128.203125 508.03125 148.65625 555.875 177.039062 C 565.15625 182.546875 570.921875 192.789062 570.921875 203.773438 L 570.921875 423.84375 C 570.921875 452.101562 562.25 479.078125 545.835938 501.863281 C 511.25 549.878906 459.75 585.40625 383.871094 613.558594 C 307.992188 585.40625 256.488281 549.878906 221.90625 501.863281 Z M 427.113281 476.355469 C 428.222656 475.054688 428.707031 473.332031 428.4375 471.644531 L 408.089844 344.84375 C 423.480469 336.160156 433.199219 319.769531 433.199219 301.921875 C 433.199219 274.730469 411.074219 252.613281 383.875 252.613281 C 356.683594 252.613281 334.558594 274.730469 334.558594 301.921875 C 334.558594 319.769531 344.277344 336.160156 359.660156 344.84375 L 339.308594 471.640625 C 339.03125 473.328125 339.515625 475.050781 340.632812 476.351562 C 341.738281 477.652344 343.367188 478.402344 345.078125 478.402344 L 422.671875 478.402344 C 424.382812 478.40625 426.007812 477.652344 427.113281 476.355469 Z M 351.921875 466.726562 L 371.855469 342.484375 C 372.269531 339.882812 370.890625 337.316406 368.484375 336.238281 C 354.964844 330.164062 346.226562 316.695312 346.226562 301.921875 C 346.226562 281.171875 363.113281 264.292969 383.863281 264.292969 C 404.613281 264.292969 421.503906 281.171875 421.503906 301.921875 C 421.503906 316.699219 412.769531 330.164062 399.246094 336.238281 C 396.835938 337.316406 395.457031 339.882812 395.871094 342.484375 L 415.8125 466.726562 Z M 217.789062 628.996094 C 258.042969 653.820312 302.296875 668.996094 349.3125 674.097656 C 352.523438 674.449219 354.835938 677.328125 354.492188 680.535156 C 354.164062 683.523438 351.636719 685.742188 348.691406 685.742188 C 348.480469 685.742188 348.273438 685.730469 348.0625 685.707031 C 299.292969 680.417969 253.410156 664.679688 211.664062 638.933594 C 208.917969 637.242188 208.070312 633.644531 209.761719 630.898438 C 211.453125 628.15625 215.035156 627.296875 217.789062 628.996094 Z M 174.730469 80.949219 C 172.832031 78.339844 173.410156 74.691406 176.019531 72.792969 C 211.65625 46.902344 251.234375 28.121094 293.664062 16.96875 C 296.777344 16.152344 299.976562 18.015625 300.796875 21.132812 C 301.617188 24.25 299.75 27.445312 296.628906 28.269531 C 255.617188 39.046875 217.347656 57.207031 182.886719 82.238281 C 181.847656 82.992188 180.652344 83.355469 179.460938 83.355469 C 177.648438 83.355469 175.875 82.519531 174.730469 80.949219 Z M 43.65625 291.175781 C 43.25 291.175781 42.835938 291.136719 42.417969 291.046875 C 39.265625 290.363281 37.261719 287.257812 37.941406 284.105469 C 44.761719 252.542969 55.917969 222.042969 71.109375 193.460938 C 72.621094 190.617188 76.152344 189.535156 79.003906 191.042969 C 81.855469 192.554688 82.941406 196.09375 81.421875 198.945312 C 66.738281 226.574219 55.957031 256.0625 49.363281 286.574219 C 48.769531 289.308594 46.351562 291.175781 43.65625 291.175781 Z M 44.304688 316.203125 C 42.523438 330.390625 41.625 344.867188 41.625 359.226562 C 41.625 362.449219 39.015625 365.066406 35.785156 365.066406 C 32.554688 365.066406 29.945312 362.449219 29.945312 359.226562 C 29.945312 344.382812 30.878906 329.421875 32.71875 314.75 C 33.117188 311.554688 36.023438 309.277344 39.238281 309.679688 C 42.441406 310.082031 44.707031 312.996094 44.304688 316.203125 Z M 264.800781 641.253906 C 261.828125 639.996094 260.441406 636.574219 261.699219 633.601562 C 262.953125 630.632812 266.367188 629.242188 269.355469 630.496094 C 291.648438 639.914062 315.105469 646.546875 339.0625 650.203125 C 342.257812 650.6875 344.445312 653.671875 343.957031 656.859375 C 343.519531 659.75 341.03125 661.820312 338.191406 661.820312 C 337.898438 661.820312 337.601562 661.800781 337.308594 661.753906 C 312.382812 657.945312 287.992188 651.058594 264.800781 641.253906 Z M 32.46875 559.449219 C 41.597656 559.449219 49.011719 552.027344 49.011719 542.90625 C 49.011719 533.785156 41.589844 526.363281 32.46875 526.363281 C 23.34375 526.363281 15.921875 533.785156 15.921875 542.90625 C 15.921875 552.027344 23.34375 559.449219 32.46875 559.449219 Z M 32.46875 538.042969 C 35.148438 538.042969 37.332031 540.226562 37.332031 542.90625 C 37.332031 545.585938 35.148438 547.769531 32.46875 547.769531 C 29.785156 547.769531 27.601562 545.585938 27.601562 542.90625 C 27.601562 540.226562 29.785156 538.042969 32.46875 538.042969 Z M 664.046875 53.195312 C 673.175781 53.195312 680.59375 45.773438 680.59375 36.652344 C 680.59375 27.53125 673.171875 20.109375 664.046875 20.109375 C 654.925781 20.109375 647.5 27.53125 647.5 36.652344 C 647.5 45.773438 654.917969 53.195312 664.046875 53.195312 Z M 664.046875 31.789062 C 666.726562 31.789062 668.914062 33.972656 668.914062 36.652344 C 668.914062 39.332031 666.726562 41.515625 664.046875 41.515625 C 661.367188 41.515625 659.183594 39.332031 659.183594 36.652344 C 659.183594 33.972656 661.367188 31.789062 664.046875 31.789062 Z M 69.175781 707.238281 C 69.175781 716.355469 76.597656 723.777344 85.714844 723.777344 C 94.84375 723.777344 102.261719 716.355469 102.261719 707.238281 C 102.261719 698.117188 94.835938 690.695312 85.714844 690.695312 C 76.597656 690.695312 69.175781 698.117188 69.175781 707.238281 Z M 90.578125 707.238281 C 90.578125 709.917969 88.394531 712.101562 85.714844 712.101562 C 83.035156 712.101562 80.855469 709.917969 80.855469 707.238281 C 80.855469 704.554688 83.035156 702.371094 85.714844 702.371094 C 88.394531 702.371094 90.578125 704.554688 90.578125 707.238281 Z M 21.761719 117.09375 L 30.523438 117.09375 L 30.523438 189.535156 C 30.523438 192.761719 33.132812 195.375 36.363281 195.375 C 39.59375 195.375 42.203125 192.761719 42.203125 189.535156 L 42.203125 117.09375 L 89.335938 117.09375 L 89.335938 144.28125 C 89.335938 147.507812 91.945312 150.121094 95.175781 150.121094 C 98.40625 150.121094 101.015625 147.507812 101.015625 144.28125 L 101.015625 117.09375 L 133.554688 117.09375 L 180.445312 160.9375 C 164.976562 176.796875 151.328125 194.4375 139.867188 213.542969 L 108.800781 191.441406 C 108.726562 191.382812 108.625 191.382812 108.550781 191.328125 C 108.480469 191.28125 108.441406 191.207031 108.363281 191.160156 C 108.101562 191.007812 107.816406 190.984375 107.546875 190.878906 C 107.167969 190.726562 106.804688 190.558594 106.40625 190.488281 C 106.039062 190.425781 105.683594 190.453125 105.308594 190.460938 C 104.929688 190.464844 104.5625 190.449219 104.195312 190.53125 C 103.820312 190.613281 103.492188 190.773438 103.144531 190.925781 C 102.804688 191.074219 102.472656 191.191406 102.160156 191.394531 C 101.824219 191.621094 101.554688 191.9375 101.269531 192.234375 C 101.070312 192.4375 100.824219 192.574219 100.65625 192.8125 C 100.609375 192.882812 100.601562 192.957031 100.554688 193.027344 C 100.503906 193.109375 100.414062 193.15625 100.367188 193.238281 C 70.945312 243.375 55.390625 300.777344 55.390625 359.214844 C 55.390625 439.019531 84.367188 515.949219 136.980469 575.839844 C 138.132812 577.15625 139.75 577.828125 141.367188 577.828125 C 142.734375 577.828125 144.113281 577.347656 145.222656 576.371094 C 147.648438 574.242188 147.886719 570.550781 145.753906 568.132812 C 137.492188 558.726562 129.898438 548.847656 122.867188 538.628906 L 146.140625 515.585938 C 169.1875 550.589844 200.101562 580.5 237.328125 602.824219 L 38.308594 602.824219 L 38.308594 571.980469 C 38.308594 568.757812 35.695312 566.140625 32.46875 566.140625 C 29.238281 566.140625 26.625 568.757812 26.625 571.980469 L 26.625 608.664062 C 26.625 611.886719 29.238281 614.503906 32.46875 614.503906 L 79.875 614.503906 L 79.875 677.054688 C 79.875 680.277344 82.484375 682.890625 85.714844 682.890625 C 88.945312 682.890625 91.554688 680.277344 91.554688 677.054688 L 91.554688 614.503906 L 122.054688 614.503906 L 122.054688 642.859375 C 122.054688 646.082031 124.664062 648.699219 127.894531 648.699219 C 131.125 648.699219 133.734375 646.082031 133.734375 642.859375 L 133.734375 614.503906 L 260.09375 614.503906 C 260.363281 614.503906 260.589844 614.386719 260.847656 614.351562 C 261.296875 614.292969 261.746094 614.246094 262.167969 614.082031 C 262.5 613.953125 262.773438 613.75 263.070312 613.570312 C 263.410156 613.363281 263.75 613.1875 264.042969 612.914062 C 264.34375 612.632812 264.554688 612.285156 264.792969 611.9375 C 264.957031 611.699219 265.1875 611.53125 265.320312 611.261719 C 265.347656 611.210938 265.335938 611.144531 265.367188 611.09375 C 265.53125 610.742188 265.578125 610.355469 265.664062 609.976562 C 265.753906 609.59375 265.886719 609.21875 265.898438 608.832031 C 265.898438 608.773438 265.933594 608.722656 265.933594 608.664062 C 265.933594 608.371094 265.8125 608.121094 265.769531 607.839844 C 265.707031 607.417969 265.671875 607.003906 265.519531 606.609375 C 265.382812 606.25 265.167969 605.960938 264.96875 605.640625 C 264.769531 605.316406 264.609375 604.996094 264.351562 604.714844 C 264.0625 604.40625 263.714844 604.191406 263.363281 603.953125 C 263.128906 603.789062 262.960938 603.558594 262.691406 603.429688 C 216.5 580.476562 178.976562 545.972656 152.828125 504.367188 C 152.554688 503.539062 152.144531 502.746094 151.488281 502.078125 C 151.441406 502.03125 151.382812 502.019531 151.339844 501.980469 C 125.546875 459.976562 111.253906 410.910156 111.253906 359.214844 C 111.253906 208.921875 233.546875 86.65625 383.871094 86.65625 C 534.191406 86.65625 656.488281 208.921875 656.488281 359.214844 C 656.488281 509.507812 534.191406 631.785156 383.871094 631.785156 C 380.640625 631.785156 378.027344 634.402344 378.027344 637.625 L 378.027344 737.074219 C 378.027344 740.296875 380.640625 742.914062 383.871094 742.914062 C 387.097656 742.914062 389.710938 740.296875 389.710938 737.074219 L 389.710938 717.480469 L 442.292969 717.480469 C 445.519531 717.480469 448.132812 714.863281 448.132812 711.640625 C 448.132812 708.414062 445.519531 705.800781 442.292969 705.800781 L 389.710938 705.800781 L 389.710938 687.492188 C 473.660156 686.039062 552.324219 653.328125 612.546875 594.855469 L 621.488281 605.363281 C 591.046875 634.765625 555.980469 658.058594 517.089844 674.511719 C 514.117188 675.769531 512.734375 679.195312 513.988281 682.167969 C 514.929688 684.394531 517.089844 685.734375 519.367188 685.734375 C 520.128906 685.734375 520.902344 685.585938 521.644531 685.269531 C 561.648438 668.351562 597.710938 644.433594 629.074219 614.273438 L 650.773438 639.773438 L 650.773438 673.011719 C 650.773438 676.234375 653.382812 678.851562 656.613281 678.851562 C 659.84375 678.851562 662.453125 676.234375 662.453125 673.011719 L 662.453125 643.464844 L 678.304688 643.464844 L 678.304688 695.792969 C 678.304688 699.015625 680.914062 701.628906 684.144531 701.628906 C 687.375 701.628906 689.984375 699.015625 689.984375 695.792969 L 689.984375 643.464844 L 725.59375 643.464844 C 728.824219 643.464844 731.433594 640.851562 731.433594 637.625 C 731.433594 634.402344 728.824219 631.785156 725.59375 631.785156 L 659.304688 631.785156 L 591.945312 552.625 C 597.277344 546.894531 602.355469 540.933594 607.207031 534.777344 L 658.042969 589.539062 C 659.148438 590.730469 660.699219 591.410156 662.324219 591.410156 L 716.078125 591.410156 C 719.308594 591.410156 721.921875 588.792969 721.921875 585.570312 C 721.921875 582.347656 719.308594 579.730469 716.078125 579.730469 L 694.398438 579.730469 L 694.398438 542.140625 C 694.398438 538.917969 691.789062 536.304688 688.558594 536.304688 C 685.328125 536.304688 682.71875 538.917969 682.71875 542.140625 L 682.71875 579.730469 L 664.871094 579.730469 L 629.542969 541.667969 C 641.730469 525.277344 652.359375 507.726562 661.023438 489.308594 C 662.386719 486.390625 661.140625 482.914062 658.222656 481.542969 C 655.304688 480.164062 651.828125 481.425781 650.449219 484.339844 C 642.433594 501.394531 632.632812 517.675781 621.445312 532.945312 L 614.363281 525.3125 C 636.125 495.210938 652.121094 460.707031 660.769531 423.402344 L 696.402344 436.671875 C 696.539062 436.726562 696.671875 436.707031 696.8125 436.75 C 696.933594 436.785156 697.023438 436.871094 697.144531 436.902344 C 697.570312 437 698.003906 437.042969 698.425781 437.042969 C 698.429688 437.042969 698.4375 437.046875 698.441406 437.046875 C 698.441406 437.046875 698.441406 437.046875 698.449219 437.046875 C 698.449219 437.046875 698.453125 437.046875 698.453125 437.046875 C 698.488281 437.046875 698.519531 437.03125 698.546875 437.03125 C 699.136719 437.019531 699.714844 436.917969 700.265625 436.738281 C 700.492188 436.660156 700.691406 436.53125 700.902344 436.429688 C 701.238281 436.269531 701.570312 436.113281 701.875 435.890625 C 702.09375 435.734375 702.265625 435.535156 702.464844 435.339844 C 702.71875 435.101562 702.957031 434.863281 703.160156 434.578125 C 703.332031 434.34375 703.445312 434.09375 703.582031 433.828125 C 703.6875 433.625 703.832031 433.457031 703.914062 433.238281 C 703.953125 433.128906 703.933594 433.019531 703.964844 432.90625 C 704.011719 432.761719 704.101562 432.648438 704.136719 432.5 C 709.589844 408.597656 712.347656 383.9375 712.347656 359.214844 C 712.347656 252.457031 660.367188 155.84375 579.285156 95.472656 L 595.082031 77.324219 L 643.75 77.324219 L 643.75 127.628906 C 643.75 130.851562 646.363281 133.46875 649.59375 133.46875 C 652.820312 133.46875 655.433594 130.851562 655.433594 127.628906 L 655.433594 77.324219 L 681.640625 77.324219 L 681.640625 104.785156 C 681.640625 108.007812 684.25 110.625 687.480469 110.625 C 690.707031 110.625 693.320312 108.007812 693.320312 104.785156 L 693.320312 77.324219 L 728.363281 77.324219 C 731.59375 77.324219 734.203125 74.707031 734.203125 71.484375 C 734.203125 68.261719 731.59375 65.644531 728.363281 65.644531 L 598.265625 65.644531 L 598.265625 42.492188 L 635.042969 42.492188 C 638.273438 42.492188 640.882812 39.875 640.882812 36.652344 C 640.882812 33.429688 638.273438 30.8125 635.042969 30.8125 L 592.425781 30.8125 C 589.195312 30.8125 586.585938 33.429688 586.585938 36.652344 L 586.585938 69.304688 L 569.730469 88.667969 C 529.851562 61.132812 483.511719 42.152344 433.191406 34.566406 L 433.191406 13.003906 C 433.191406 9.78125 430.582031 7.164062 427.351562 7.164062 C 424.121094 7.164062 421.511719 9.78125 421.511719 13.003906 L 421.511719 77.550781 C 409.183594 75.910156 396.636719 74.980469 383.871094 74.980469 C 371.101562 74.980469 358.558594 75.910156 346.234375 77.550781 L 346.234375 39.5625 C 346.234375 39.425781 346.164062 39.308594 346.15625 39.175781 C 346.152344 39.042969 346.203125 38.917969 346.1875 38.777344 C 346.152344 38.503906 346 38.28125 345.929688 38.019531 C 345.832031 37.65625 345.738281 37.308594 345.574219 36.972656 C 345.386719 36.59375 345.148438 36.277344 344.882812 35.957031 C 344.6875 35.707031 344.5 35.460938 344.257812 35.25 C 343.9375 34.964844 343.582031 34.75 343.203125 34.539062 C 342.921875 34.382812 342.652344 34.222656 342.351562 34.113281 C 341.957031 33.972656 341.554688 33.921875 341.128906 33.867188 C 340.878906 33.832031 340.65625 33.722656 340.398438 33.722656 C 340.265625 33.722656 340.152344 33.785156 340.023438 33.796875 C 339.886719 33.804688 339.757812 33.75 339.617188 33.769531 C 270.171875 43.121094 206.960938 73.777344 156.359375 122.433594 L 139.84375 106.992188 C 138.761719 105.984375 137.339844 105.417969 135.855469 105.417969 L 60.09375 105.417969 L 60.09375 58.386719 C 60.09375 55.164062 57.480469 52.546875 54.253906 52.546875 C 51.023438 52.546875 48.410156 55.164062 48.410156 58.386719 L 48.410156 105.417969 L 21.761719 105.417969 C 18.53125 105.417969 15.921875 108.03125 15.921875 111.253906 C 15.921875 114.480469 18.53125 117.09375 21.761719 117.09375 Z M 389.710938 675.816406 L 389.710938 643.320312 C 465.273438 641.785156 533.695312 610.695312 583.800781 561.078125 L 604.960938 585.949219 C 546.859375 642.625 470.851562 674.355469 389.710938 675.816406 Z M 433.191406 46.394531 C 586.136719 70.316406 700.667969 203.574219 700.667969 359.222656 C 700.667969 380.820312 698.367188 402.34375 694.050781 423.34375 L 663.199219 411.851562 C 666.414062 394.78125 668.164062 377.207031 668.164062 359.222656 C 668.164062 219.316406 566.511719 102.777344 433.191406 79.351562 Z M 139.792969 505.453125 L 116.308594 528.699219 C 84.359375 478.308594 67.070312 419.640625 67.070312 359.222656 C 67.070312 304.996094 80.984375 251.730469 107.300781 204.714844 L 134.007812 223.714844 C 112.054688 264.015625 99.566406 310.1875 99.566406 359.222656 C 99.574219 412.054688 113.90625 462.242188 139.792969 505.453125 Z M 334.550781 46.375 L 334.550781 79.355469 C 278.671875 89.171875 228.386719 115.335938 188.792969 152.753906 L 164.910156 130.425781 C 212.007812 85.300781 270.40625 56.371094 334.550781 46.375 Z M 334.550781 46.375 " clip-rule="nonzero"/></clipPath><linearGradient x1="61.492001" gradientTransform="matrix(5.840445, 0, 0, 5.839286, 15.921404, 7.16445)" y1="0.00000300405" x2="61.492001" gradientUnits="userSpaceOnUse" y2="125.999985" id="id3"><stop stop-opacity="1" stop-color="rgb(93.699646%, 79.598999%, 34.498596%)" offset="0"/><stop stop-opacity="1" stop-color="rgb(93.64624%, 79.420471%, 34.667969%)" offset="0.0078125"/><stop stop-opacity="1" stop-color="rgb(93.537903%, 79.064941%, 35.00824%)" offset="0.015625"/><stop stop-opacity="1" stop-color="rgb(93.431091%, 78.709412%, 35.348511%)" offset="0.0234375"/><stop stop-opacity="1" stop-color="rgb(93.32428%, 78.353882%, 35.688782%)" offset="0.03125"/><stop stop-opacity="1" stop-color="rgb(93.217468%, 77.998352%, 36.027527%)" offset="0.0390625"/><stop stop-opacity="1" stop-color="rgb(93.110657%, 77.642822%, 36.367798%)" offset="0.046875"/><stop stop-opacity="1" stop-color="rgb(93.003845%, 77.287292%, 36.708069%)" offset="0.0546875"/><stop stop-opacity="1" stop-color="rgb(92.897034%, 76.931763%, 37.046814%)" offset="0.0625"/><stop stop-opacity="1" stop-color="rgb(92.788696%, 76.577759%, 37.387085%)" offset="0.0703125"/><stop stop-opacity="1" stop-color="rgb(92.681885%, 76.222229%, 37.727356%)" offset="0.078125"/><stop stop-opacity="1" stop-color="rgb(92.575073%, 75.866699%, 38.067627%)" offset="0.0859375"/><stop stop-opacity="1" stop-color="rgb(92.468262%, 75.511169%, 38.406372%)" offset="0.09375"/><stop stop-opacity="1" stop-color="rgb(92.36145%, 75.15564%, 38.746643%)" offset="0.101562"/><stop stop-opacity="1" stop-color="rgb(92.254639%, 74.80011%, 39.086914%)" offset="0.109375"/><stop stop-opacity="1" stop-color="rgb(92.147827%, 74.44458%, 39.427185%)" offset="0.117188"/><stop stop-opacity="1" stop-color="rgb(92.03949%, 74.08905%, 39.76593%)" offset="0.125"/><stop stop-opacity="1" stop-color="rgb(91.932678%, 73.733521%, 40.106201%)" offset="0.132812"/><stop stop-opacity="1" stop-color="rgb(91.825867%, 73.377991%, 40.446472%)" offset="0.140625"/><stop stop-opacity="1" stop-color="rgb(91.719055%, 73.022461%, 40.785217%)" offset="0.148438"/><stop stop-opacity="1" stop-color="rgb(91.612244%, 72.666931%, 41.125488%)" offset="0.15625"/><stop stop-opacity="1" stop-color="rgb(91.505432%, 72.311401%, 41.465759%)" offset="0.164062"/><stop stop-opacity="1" stop-color="rgb(91.398621%, 71.955872%, 41.80603%)" offset="0.171875"/><stop stop-opacity="1" stop-color="rgb(91.290283%, 71.600342%, 42.144775%)" offset="0.179688"/><stop stop-opacity="1" stop-color="rgb(91.183472%, 71.244812%, 42.485046%)" offset="0.1875"/><stop stop-opacity="1" stop-color="rgb(91.07666%, 70.889282%, 42.825317%)" offset="0.195313"/><stop stop-opacity="1" stop-color="rgb(90.969849%, 70.533752%, 43.164062%)" offset="0.203125"/><stop stop-opacity="1" stop-color="rgb(90.863037%, 70.178223%, 43.504333%)" offset="0.210938"/><stop stop-opacity="1" stop-color="rgb(90.756226%, 69.822693%, 43.844604%)" offset="0.21875"/><stop stop-opacity="1" stop-color="rgb(90.649414%, 69.467163%, 44.184875%)" offset="0.226562"/><stop stop-opacity="1" stop-color="rgb(90.541077%, 69.111633%, 44.523621%)" offset="0.234375"/><stop stop-opacity="1" stop-color="rgb(90.434265%, 68.756104%, 44.863892%)" offset="0.242188"/><stop stop-opacity="1" stop-color="rgb(90.327454%, 68.400574%, 45.204163%)" offset="0.25"/><stop stop-opacity="1" stop-color="rgb(90.220642%, 68.045044%, 45.542908%)" offset="0.257812"/><stop stop-opacity="1" stop-color="rgb(90.113831%, 67.69104%, 45.883179%)" offset="0.265625"/><stop stop-opacity="1" stop-color="rgb(90.007019%, 67.33551%, 46.22345%)" offset="0.273438"/><stop stop-opacity="1" stop-color="rgb(89.900208%, 66.97998%, 46.563721%)" offset="0.28125"/><stop stop-opacity="1" stop-color="rgb(89.79187%, 66.624451%, 46.902466%)" offset="0.289062"/><stop stop-opacity="1" stop-color="rgb(89.685059%, 66.268921%, 47.242737%)" offset="0.296875"/><stop stop-opacity="1" stop-color="rgb(89.578247%, 65.913391%, 47.583008%)" offset="0.304687"/><stop stop-opacity="1" stop-color="rgb(89.471436%, 65.557861%, 47.921753%)" offset="0.3125"/><stop stop-opacity="1" stop-color="rgb(89.364624%, 65.202332%, 48.262024%)" offset="0.320312"/><stop stop-opacity="1" stop-color="rgb(89.257812%, 64.846802%, 48.602295%)" offset="0.328125"/><stop stop-opacity="1" stop-color="rgb(89.151001%, 64.491272%, 48.942566%)" offset="0.335937"/><stop stop-opacity="1" stop-color="rgb(89.042664%, 64.135742%, 49.281311%)" offset="0.34375"/><stop stop-opacity="1" stop-color="rgb(88.935852%, 63.780212%, 49.621582%)" offset="0.351562"/><stop stop-opacity="1" stop-color="rgb(88.829041%, 63.424683%, 49.961853%)" offset="0.359375"/><stop stop-opacity="1" stop-color="rgb(88.722229%, 63.069153%, 50.302124%)" offset="0.367187"/><stop stop-opacity="1" stop-color="rgb(88.615417%, 62.713623%, 50.640869%)" offset="0.375"/><stop stop-opacity="1" stop-color="rgb(88.508606%, 62.358093%, 50.98114%)" offset="0.382812"/><stop stop-opacity="1" stop-color="rgb(88.401794%, 62.002563%, 51.321411%)" offset="0.390625"/><stop stop-opacity="1" stop-color="rgb(88.293457%, 61.647034%, 51.660156%)" offset="0.398437"/><stop stop-opacity="1" stop-color="rgb(88.186646%, 61.291504%, 52.000427%)" offset="0.40625"/><stop stop-opacity="1" stop-color="rgb(88.079834%, 60.935974%, 52.340698%)" offset="0.414062"/><stop stop-opacity="1" stop-color="rgb(87.973022%, 60.580444%, 52.680969%)" offset="0.421875"/><stop stop-opacity="1" stop-color="rgb(87.866211%, 60.224915%, 53.019714%)" offset="0.429688"/><stop stop-opacity="1" stop-color="rgb(87.759399%, 59.869385%, 53.359985%)" offset="0.4375"/><stop stop-opacity="1" stop-color="rgb(87.652588%, 59.513855%, 53.700256%)" offset="0.445312"/><stop stop-opacity="1" stop-color="rgb(87.54425%, 59.158325%, 54.039001%)" offset="0.453125"/><stop stop-opacity="1" stop-color="rgb(87.437439%, 58.804321%, 54.379272%)" offset="0.460937"/><stop stop-opacity="1" stop-color="rgb(87.330627%, 58.448792%, 54.719543%)" offset="0.46875"/><stop stop-opacity="1" stop-color="rgb(87.223816%, 58.093262%, 55.059814%)" offset="0.476562"/><stop stop-opacity="1" stop-color="rgb(87.117004%, 57.737732%, 55.39856%)" offset="0.484375"/><stop stop-opacity="1" stop-color="rgb(87.010193%, 57.382202%, 55.738831%)" offset="0.492187"/><stop stop-opacity="1" stop-color="rgb(86.903381%, 57.026672%, 56.079102%)" offset="0.5"/><stop stop-opacity="1" stop-color="rgb(86.795044%, 56.671143%, 56.417847%)" offset="0.507812"/><stop stop-opacity="1" stop-color="rgb(86.688232%, 56.315613%, 56.758118%)" offset="0.515625"/><stop stop-opacity="1" stop-color="rgb(86.581421%, 55.960083%, 57.098389%)" offset="0.523438"/><stop stop-opacity="1" stop-color="rgb(86.474609%, 55.604553%, 57.43866%)" offset="0.53125"/><stop stop-opacity="1" stop-color="rgb(86.367798%, 55.249023%, 57.777405%)" offset="0.539062"/><stop stop-opacity="1" stop-color="rgb(86.260986%, 54.893494%, 58.117676%)" offset="0.546875"/><stop stop-opacity="1" stop-color="rgb(86.154175%, 54.537964%, 58.457947%)" offset="0.554688"/><stop stop-opacity="1" stop-color="rgb(86.045837%, 54.182434%, 58.798218%)" offset="0.5625"/><stop stop-opacity="1" stop-color="rgb(85.939026%, 53.826904%, 59.136963%)" offset="0.570312"/><stop stop-opacity="1" stop-color="rgb(85.832214%, 53.471375%, 59.477234%)" offset="0.578125"/><stop stop-opacity="1" stop-color="rgb(85.725403%, 53.115845%, 59.817505%)" offset="0.585937"/><stop stop-opacity="1" stop-color="rgb(85.618591%, 52.760315%, 60.15625%)" offset="0.59375"/><stop stop-opacity="1" stop-color="rgb(85.51178%, 52.404785%, 60.496521%)" offset="0.601562"/><stop stop-opacity="1" stop-color="rgb(85.404968%, 52.049255%, 60.836792%)" offset="0.609375"/><stop stop-opacity="1" stop-color="rgb(85.296631%, 51.693726%, 61.177063%)" offset="0.617187"/><stop stop-opacity="1" stop-color="rgb(85.189819%, 51.338196%, 61.515808%)" offset="0.625"/><stop stop-opacity="1" stop-color="rgb(85.083008%, 50.982666%, 61.856079%)" offset="0.632813"/><stop stop-opacity="1" stop-color="rgb(84.976196%, 50.627136%, 62.19635%)" offset="0.640625"/><stop stop-opacity="1" stop-color="rgb(84.869385%, 50.271606%, 62.535095%)" offset="0.648438"/><stop stop-opacity="1" stop-color="rgb(84.762573%, 49.917603%, 62.875366%)" offset="0.65625"/><stop stop-opacity="1" stop-color="rgb(84.654236%, 49.562073%, 63.215637%)" offset="0.664062"/><stop stop-opacity="1" stop-color="rgb(84.547424%, 49.206543%, 63.555908%)" offset="0.671875"/><stop stop-opacity="1" stop-color="rgb(84.440613%, 48.851013%, 63.894653%)" offset="0.679688"/><stop stop-opacity="1" stop-color="rgb(84.333801%, 48.495483%, 64.234924%)" offset="0.6875"/><stop stop-opacity="1" stop-color="rgb(84.22699%, 48.139954%, 64.575195%)" offset="0.695312"/><stop stop-opacity="1" stop-color="rgb(84.120178%, 47.784424%, 64.91394%)" offset="0.703125"/><stop stop-opacity="1" stop-color="rgb(84.013367%, 47.428894%, 65.254211%)" offset="0.710938"/><stop stop-opacity="1" stop-color="rgb(83.905029%, 47.073364%, 65.594482%)" offset="0.71875"/><stop stop-opacity="1" stop-color="rgb(83.798218%, 46.717834%, 65.934753%)" offset="0.726562"/><stop stop-opacity="1" stop-color="rgb(83.691406%, 46.362305%, 66.273499%)" offset="0.734375"/><stop stop-opacity="1" stop-color="rgb(83.584595%, 46.006775%, 66.61377%)" offset="0.742187"/><stop stop-opacity="1" stop-color="rgb(83.477783%, 45.651245%, 66.954041%)" offset="0.75"/><stop stop-opacity="1" stop-color="rgb(83.370972%, 45.295715%, 67.294312%)" offset="0.757813"/><stop stop-opacity="1" stop-color="rgb(83.26416%, 44.940186%, 67.633057%)" offset="0.765625"/><stop stop-opacity="1" stop-color="rgb(83.155823%, 44.584656%, 67.973328%)" offset="0.773438"/><stop stop-opacity="1" stop-color="rgb(83.049011%, 44.229126%, 68.313599%)" offset="0.78125"/><stop stop-opacity="1" stop-color="rgb(82.9422%, 43.873596%, 68.652344%)" offset="0.789063"/><stop stop-opacity="1" stop-color="rgb(82.835388%, 43.518066%, 68.992615%)" offset="0.796875"/><stop stop-opacity="1" stop-color="rgb(82.728577%, 43.162537%, 69.332886%)" offset="0.804688"/><stop stop-opacity="1" stop-color="rgb(82.621765%, 42.807007%, 69.673157%)" offset="0.8125"/><stop stop-opacity="1" stop-color="rgb(82.514954%, 42.451477%, 70.011902%)" offset="0.820312"/><stop stop-opacity="1" stop-color="rgb(82.406616%, 42.095947%, 70.352173%)" offset="0.828125"/><stop stop-opacity="1" stop-color="rgb(82.299805%, 41.740417%, 70.692444%)" offset="0.835938"/><stop stop-opacity="1" stop-color="rgb(82.192993%, 41.384888%, 71.031189%)" offset="0.84375"/><stop stop-opacity="1" stop-color="rgb(82.086182%, 41.030884%, 71.37146%)" offset="0.851562"/><stop stop-opacity="1" stop-color="rgb(81.97937%, 40.675354%, 71.711731%)" offset="0.859375"/><stop stop-opacity="1" stop-color="rgb(81.872559%, 40.319824%, 72.052002%)" offset="0.867188"/><stop stop-opacity="1" stop-color="rgb(81.765747%, 39.964294%, 72.390747%)" offset="0.875"/><stop stop-opacity="1" stop-color="rgb(81.65741%, 39.608765%, 72.731018%)" offset="0.882812"/><stop stop-opacity="1" stop-color="rgb(81.550598%, 39.253235%, 73.071289%)" offset="0.890625"/><stop stop-opacity="1" stop-color="rgb(81.443787%, 38.897705%, 73.410034%)" offset="0.898437"/><stop stop-opacity="1" stop-color="rgb(81.336975%, 38.542175%, 73.750305%)" offset="0.90625"/><stop stop-opacity="1" stop-color="rgb(81.230164%, 38.186646%, 74.090576%)" offset="0.914062"/><stop stop-opacity="1" stop-color="rgb(81.123352%, 37.831116%, 74.430847%)" offset="0.921875"/><stop stop-opacity="1" stop-color="rgb(81.016541%, 37.475586%, 74.769592%)" offset="0.929687"/><stop stop-opacity="1" stop-color="rgb(80.908203%, 37.120056%, 75.109863%)" offset="0.9375"/><stop stop-opacity="1" stop-color="rgb(80.801392%, 36.764526%, 75.450134%)" offset="0.945313"/><stop stop-opacity="1" stop-color="rgb(80.69458%, 36.408997%, 75.790405%)" offset="0.953125"/><stop stop-opacity="1" stop-color="rgb(80.587769%, 36.053467%, 76.12915%)" offset="0.960938"/><stop stop-opacity="1" stop-color="rgb(80.480957%, 35.697937%, 76.469421%)" offset="0.96875"/><stop stop-opacity="1" stop-color="rgb(80.374146%, 35.342407%, 76.809692%)" offset="0.976562"/><stop stop-opacity="1" stop-color="rgb(80.267334%, 34.986877%, 77.148438%)" offset="0.984375"/><stop stop-opacity="1" stop-color="rgb(80.158997%, 34.631348%, 77.488708%)" offset="0.992188"/><stop stop-opacity="1" stop-color="rgb(80.052185%, 34.275818%, 77.828979%)" offset="1"/></linearGradient></defs><g clip-path="url(#id1)"><g clip-path="url(#id2)"><path fill="url(#id3)" d="M 15.921875 7.164062 L 15.921875 742.914062 L 734.203125 742.914062 L 734.203125 7.164062 Z M 15.921875 7.164062 " fill-rule="nonzero"/></g></g></svg>